<?xml version="1.0" encoding="utf-8" standalone="no"?>
<!DOCTYPE svg PUBLIC "-//W3C//DTD SVG 1.1//EN"
  "http://www.w3.org/Graphics/SVG/1.1/DTD/svg11.dtd">
<!-- Created with matplotlib (https://matplotlib.org/) -->
<svg height="360pt" version="1.1" viewBox="0 0 720 360" width="720pt" xmlns="http://www.w3.org/2000/svg" xmlns:xlink="http://www.w3.org/1999/xlink">
 <defs>
  <style type="text/css">
*{stroke-linecap:butt;stroke-linejoin:round;}
  </style>
 </defs>
 <g id="figure_1">
  <g id="patch_1">
   <path d="M 0 360 
L 720 360 
L 720 0 
L 0 0 
z
" style="fill:#ffffff;"/>
  </g>
  <g id="axes_1">
   <g id="patch_2">
    <path d="M 44.4116 312.2584 
L 353.7792 312.2584 
L 353.7792 27.0816 
L 44.4116 27.0816 
z
" style="fill:#ffffff;"/>
   </g>
   <g id="patch_3">
    <path clip-path="url(#p8569bc4f05)" d="M 46.989663 251.15654 
L 67.61417 251.15654 
L 67.61417 246.39878 
L 46.989663 246.39878 
L 46.989663 251.15654 
z
" style="fill:#df9c20;stroke:#4c4c4c;stroke-linejoin:miter;stroke-width:1.2;"/>
   </g>
   <g id="patch_4">
    <path clip-path="url(#p8569bc4f05)" d="M 72.770297 208.958876 
L 93.394803 208.958876 
L 93.394803 195.855704 
L 72.770297 195.855704 
L 72.770297 208.958876 
z
" style="fill:#df9c20;stroke:#4c4c4c;stroke-linejoin:miter;stroke-width:1.2;"/>
   </g>
   <g id="patch_5">
    <path clip-path="url(#p8569bc4f05)" d="M 98.55093 237.523557 
L 119.175437 237.523557 
L 119.175437 208.274526 
L 98.55093 208.274526 
L 98.55093 237.523557 
z
" style="fill:#df9c20;stroke:#4c4c4c;stroke-linejoin:miter;stroke-width:1.2;"/>
   </g>
   <g id="patch_6">
    <path clip-path="url(#p8569bc4f05)" d="M 124.331563 225.72542 
L 144.95607 225.72542 
L 144.95607 209.177252 
L 124.331563 209.177252 
L 124.331563 225.72542 
z
" style="fill:#df9c20;stroke:#4c4c4c;stroke-linejoin:miter;stroke-width:1.2;"/>
   </g>
   <g id="patch_7">
    <path clip-path="url(#p8569bc4f05)" d="M 150.112197 235.310211 
L 170.736703 235.310211 
L 170.736703 227.560251 
L 150.112197 227.560251 
L 150.112197 235.310211 
z
" style="fill:#df9c20;stroke:#4c4c4c;stroke-linejoin:miter;stroke-width:1.2;"/>
   </g>
   <g id="patch_8">
    <path clip-path="url(#p8569bc4f05)" d="M 175.89283 249.040756 
L 196.517337 249.040756 
L 196.517337 232.963259 
L 175.89283 232.963259 
L 175.89283 249.040756 
z
" style="fill:#df9c20;stroke:#4c4c4c;stroke-linejoin:miter;stroke-width:1.2;"/>
   </g>
   <g id="patch_9">
    <path clip-path="url(#p8569bc4f05)" d="M 201.673463 254.671982 
L 222.29797 254.671982 
L 222.29797 245.683167 
L 201.673463 245.683167 
L 201.673463 254.671982 
z
" style="fill:#df9c20;stroke:#4c4c4c;stroke-linejoin:miter;stroke-width:1.2;"/>
   </g>
   <g id="patch_10">
    <path clip-path="url(#p8569bc4f05)" d="M 227.454097 267.509079 
L 248.078603 267.509079 
L 248.078603 247.497281 
L 227.454097 247.497281 
L 227.454097 267.509079 
z
" style="fill:#df9c20;stroke:#4c4c4c;stroke-linejoin:miter;stroke-width:1.2;"/>
   </g>
   <g id="patch_11">
    <path clip-path="url(#p8569bc4f05)" d="M 253.23473 269.014461 
L 273.859237 269.014461 
L 273.859237 265.01618 
L 253.23473 265.01618 
L 253.23473 269.014461 
z
" style="fill:#df9c20;stroke:#4c4c4c;stroke-linejoin:miter;stroke-width:1.2;"/>
   </g>
   <g id="patch_12">
    <path clip-path="url(#p8569bc4f05)" d="M 279.015363 285.827944 
L 299.63987 285.827944 
L 299.63987 283.930033 
L 279.015363 283.930033 
L 279.015363 285.827944 
z
" style="fill:#df9c20;stroke:#4c4c4c;stroke-linejoin:miter;stroke-width:1.2;"/>
   </g>
   <g id="patch_13">
    <path clip-path="url(#p8569bc4f05)" d="M 304.795997 276.520231 
L 325.420503 276.520231 
L 325.420503 255.307476 
L 304.795997 255.307476 
L 304.795997 276.520231 
z
" style="fill:#df9c20;stroke:#4c4c4c;stroke-linejoin:miter;stroke-width:1.2;"/>
   </g>
   <g id="patch_14">
    <path clip-path="url(#p8569bc4f05)" d="M 330.57663 289.216095 
L 351.201137 289.216095 
L 351.201137 282.521137 
L 330.57663 282.521137 
L 330.57663 289.216095 
z
" style="fill:#df9c20;stroke:#4c4c4c;stroke-linejoin:miter;stroke-width:1.2;"/>
   </g>
   <g id="matplotlib.axis_1">
    <g id="xtick_1">
     <g id="line2d_1">
      <defs>
       <path d="M 0 0 
L 0 4.8 
" id="m34584a32ac" style="stroke:#000000;"/>
      </defs>
      <g>
       <use style="stroke:#000000;" x="57.301917" xlink:href="#m34584a32ac" y="312.2584"/>
      </g>
     </g>
     <g id="text_1">
      <!-- 2006 -->
      <defs>
       <path d="M 19.1875 8.296875 
L 53.609375 8.296875 
L 53.609375 0 
L 7.328125 0 
L 7.328125 8.296875 
Q 12.9375 14.109375 22.625 23.890625 
Q 32.328125 33.6875 34.8125 36.53125 
Q 39.546875 41.84375 41.421875 45.53125 
Q 43.3125 49.21875 43.3125 52.78125 
Q 43.3125 58.59375 39.234375 62.25 
Q 35.15625 65.921875 28.609375 65.921875 
Q 23.96875 65.921875 18.8125 64.3125 
Q 13.671875 62.703125 7.8125 59.421875 
L 7.8125 69.390625 
Q 13.765625 71.78125 18.9375 73 
Q 24.125 74.21875 28.421875 74.21875 
Q 39.75 74.21875 46.484375 68.546875 
Q 53.21875 62.890625 53.21875 53.421875 
Q 53.21875 48.921875 51.53125 44.890625 
Q 49.859375 40.875 45.40625 35.40625 
Q 44.1875 33.984375 37.640625 27.21875 
Q 31.109375 20.453125 19.1875 8.296875 
z
" id="DejaVuSans-50"/>
       <path d="M 31.78125 66.40625 
Q 24.171875 66.40625 20.328125 58.90625 
Q 16.5 51.421875 16.5 36.375 
Q 16.5 21.390625 20.328125 13.890625 
Q 24.171875 6.390625 31.78125 6.390625 
Q 39.453125 6.390625 43.28125 13.890625 
Q 47.125 21.390625 47.125 36.375 
Q 47.125 51.421875 43.28125 58.90625 
Q 39.453125 66.40625 31.78125 66.40625 
z
M 31.78125 74.21875 
Q 44.046875 74.21875 50.515625 64.515625 
Q 56.984375 54.828125 56.984375 36.375 
Q 56.984375 17.96875 50.515625 8.265625 
Q 44.046875 -1.421875 31.78125 -1.421875 
Q 19.53125 -1.421875 13.0625 8.265625 
Q 6.59375 17.96875 6.59375 36.375 
Q 6.59375 54.828125 13.0625 64.515625 
Q 19.53125 74.21875 31.78125 74.21875 
z
" id="DejaVuSans-48"/>
       <path d="M 33.015625 40.375 
Q 26.375 40.375 22.484375 35.828125 
Q 18.609375 31.296875 18.609375 23.390625 
Q 18.609375 15.53125 22.484375 10.953125 
Q 26.375 6.390625 33.015625 6.390625 
Q 39.65625 6.390625 43.53125 10.953125 
Q 47.40625 15.53125 47.40625 23.390625 
Q 47.40625 31.296875 43.53125 35.828125 
Q 39.65625 40.375 33.015625 40.375 
z
M 52.59375 71.296875 
L 52.59375 62.3125 
Q 48.875 64.0625 45.09375 64.984375 
Q 41.3125 65.921875 37.59375 65.921875 
Q 27.828125 65.921875 22.671875 59.328125 
Q 17.53125 52.734375 16.796875 39.40625 
Q 19.671875 43.65625 24.015625 45.921875 
Q 28.375 48.1875 33.59375 48.1875 
Q 44.578125 48.1875 50.953125 41.515625 
Q 57.328125 34.859375 57.328125 23.390625 
Q 57.328125 12.15625 50.6875 5.359375 
Q 44.046875 -1.421875 33.015625 -1.421875 
Q 20.359375 -1.421875 13.671875 8.265625 
Q 6.984375 17.96875 6.984375 36.375 
Q 6.984375 53.65625 15.1875 63.9375 
Q 23.390625 74.21875 37.203125 74.21875 
Q 40.921875 74.21875 44.703125 73.484375 
Q 48.484375 72.75 52.59375 71.296875 
z
" id="DejaVuSans-54"/>
      </defs>
      <g transform="translate(60.215817 347.4336)rotate(-90)scale(0.1056 -0.1056)">
       <use xlink:href="#DejaVuSans-50"/>
       <use x="63.623047" xlink:href="#DejaVuSans-48"/>
       <use x="127.246094" xlink:href="#DejaVuSans-48"/>
       <use x="190.869141" xlink:href="#DejaVuSans-54"/>
      </g>
     </g>
    </g>
    <g id="xtick_2">
     <g id="line2d_2">
      <g>
       <use style="stroke:#000000;" x="83.08255" xlink:href="#m34584a32ac" y="312.2584"/>
      </g>
     </g>
     <g id="text_2">
      <!-- 2007 -->
      <defs>
       <path d="M 8.203125 72.90625 
L 55.078125 72.90625 
L 55.078125 68.703125 
L 28.609375 0 
L 18.3125 0 
L 43.21875 64.59375 
L 8.203125 64.59375 
z
" id="DejaVuSans-55"/>
      </defs>
      <g transform="translate(85.99645 347.4336)rotate(-90)scale(0.1056 -0.1056)">
       <use xlink:href="#DejaVuSans-50"/>
       <use x="63.623047" xlink:href="#DejaVuSans-48"/>
       <use x="127.246094" xlink:href="#DejaVuSans-48"/>
       <use x="190.869141" xlink:href="#DejaVuSans-55"/>
      </g>
     </g>
    </g>
    <g id="xtick_3">
     <g id="line2d_3">
      <g>
       <use style="stroke:#000000;" x="108.863183" xlink:href="#m34584a32ac" y="312.2584"/>
      </g>
     </g>
     <g id="text_3">
      <!-- 2008 -->
      <defs>
       <path d="M 31.78125 34.625 
Q 24.75 34.625 20.71875 30.859375 
Q 16.703125 27.09375 16.703125 20.515625 
Q 16.703125 13.921875 20.71875 10.15625 
Q 24.75 6.390625 31.78125 6.390625 
Q 38.8125 6.390625 42.859375 10.171875 
Q 46.921875 13.96875 46.921875 20.515625 
Q 46.921875 27.09375 42.890625 30.859375 
Q 38.875 34.625 31.78125 34.625 
z
M 21.921875 38.8125 
Q 15.578125 40.375 12.03125 44.71875 
Q 8.5 49.078125 8.5 55.328125 
Q 8.5 64.0625 14.71875 69.140625 
Q 20.953125 74.21875 31.78125 74.21875 
Q 42.671875 74.21875 48.875 69.140625 
Q 55.078125 64.0625 55.078125 55.328125 
Q 55.078125 49.078125 51.53125 44.71875 
Q 48 40.375 41.703125 38.8125 
Q 48.828125 37.15625 52.796875 32.3125 
Q 56.78125 27.484375 56.78125 20.515625 
Q 56.78125 9.90625 50.3125 4.234375 
Q 43.84375 -1.421875 31.78125 -1.421875 
Q 19.734375 -1.421875 13.25 4.234375 
Q 6.78125 9.90625 6.78125 20.515625 
Q 6.78125 27.484375 10.78125 32.3125 
Q 14.796875 37.15625 21.921875 38.8125 
z
M 18.3125 54.390625 
Q 18.3125 48.734375 21.84375 45.5625 
Q 25.390625 42.390625 31.78125 42.390625 
Q 38.140625 42.390625 41.71875 45.5625 
Q 45.3125 48.734375 45.3125 54.390625 
Q 45.3125 60.0625 41.71875 63.234375 
Q 38.140625 66.40625 31.78125 66.40625 
Q 25.390625 66.40625 21.84375 63.234375 
Q 18.3125 60.0625 18.3125 54.390625 
z
" id="DejaVuSans-56"/>
      </defs>
      <g transform="translate(111.777083 347.4336)rotate(-90)scale(0.1056 -0.1056)">
       <use xlink:href="#DejaVuSans-50"/>
       <use x="63.623047" xlink:href="#DejaVuSans-48"/>
       <use x="127.246094" xlink:href="#DejaVuSans-48"/>
       <use x="190.869141" xlink:href="#DejaVuSans-56"/>
      </g>
     </g>
    </g>
    <g id="xtick_4">
     <g id="line2d_4">
      <g>
       <use style="stroke:#000000;" x="134.643817" xlink:href="#m34584a32ac" y="312.2584"/>
      </g>
     </g>
     <g id="text_4">
      <!-- 2009 -->
      <defs>
       <path d="M 10.984375 1.515625 
L 10.984375 10.5 
Q 14.703125 8.734375 18.5 7.8125 
Q 22.3125 6.890625 25.984375 6.890625 
Q 35.75 6.890625 40.890625 13.453125 
Q 46.046875 20.015625 46.78125 33.40625 
Q 43.953125 29.203125 39.59375 26.953125 
Q 35.25 24.703125 29.984375 24.703125 
Q 19.046875 24.703125 12.671875 31.3125 
Q 6.296875 37.9375 6.296875 49.421875 
Q 6.296875 60.640625 12.9375 67.421875 
Q 19.578125 74.21875 30.609375 74.21875 
Q 43.265625 74.21875 49.921875 64.515625 
Q 56.59375 54.828125 56.59375 36.375 
Q 56.59375 19.140625 48.40625 8.859375 
Q 40.234375 -1.421875 26.421875 -1.421875 
Q 22.703125 -1.421875 18.890625 -0.6875 
Q 15.09375 0.046875 10.984375 1.515625 
z
M 30.609375 32.421875 
Q 37.25 32.421875 41.125 36.953125 
Q 45.015625 41.5 45.015625 49.421875 
Q 45.015625 57.28125 41.125 61.84375 
Q 37.25 66.40625 30.609375 66.40625 
Q 23.96875 66.40625 20.09375 61.84375 
Q 16.21875 57.28125 16.21875 49.421875 
Q 16.21875 41.5 20.09375 36.953125 
Q 23.96875 32.421875 30.609375 32.421875 
z
" id="DejaVuSans-57"/>
      </defs>
      <g transform="translate(137.557717 347.4336)rotate(-90)scale(0.1056 -0.1056)">
       <use xlink:href="#DejaVuSans-50"/>
       <use x="63.623047" xlink:href="#DejaVuSans-48"/>
       <use x="127.246094" xlink:href="#DejaVuSans-48"/>
       <use x="190.869141" xlink:href="#DejaVuSans-57"/>
      </g>
     </g>
    </g>
    <g id="xtick_5">
     <g id="line2d_5">
      <g>
       <use style="stroke:#000000;" x="160.42445" xlink:href="#m34584a32ac" y="312.2584"/>
      </g>
     </g>
     <g id="text_5">
      <!-- 2010 -->
      <defs>
       <path d="M 12.40625 8.296875 
L 28.515625 8.296875 
L 28.515625 63.921875 
L 10.984375 60.40625 
L 10.984375 69.390625 
L 28.421875 72.90625 
L 38.28125 72.90625 
L 38.28125 8.296875 
L 54.390625 8.296875 
L 54.390625 0 
L 12.40625 0 
z
" id="DejaVuSans-49"/>
      </defs>
      <g transform="translate(163.33835 347.4336)rotate(-90)scale(0.1056 -0.1056)">
       <use xlink:href="#DejaVuSans-50"/>
       <use x="63.623047" xlink:href="#DejaVuSans-48"/>
       <use x="127.246094" xlink:href="#DejaVuSans-49"/>
       <use x="190.869141" xlink:href="#DejaVuSans-48"/>
      </g>
     </g>
    </g>
    <g id="xtick_6">
     <g id="line2d_6">
      <g>
       <use style="stroke:#000000;" x="186.205083" xlink:href="#m34584a32ac" y="312.2584"/>
      </g>
     </g>
     <g id="text_6">
      <!-- 2011 -->
      <g transform="translate(189.118983 347.4336)rotate(-90)scale(0.1056 -0.1056)">
       <use xlink:href="#DejaVuSans-50"/>
       <use x="63.623047" xlink:href="#DejaVuSans-48"/>
       <use x="127.246094" xlink:href="#DejaVuSans-49"/>
       <use x="190.869141" xlink:href="#DejaVuSans-49"/>
      </g>
     </g>
    </g>
    <g id="xtick_7">
     <g id="line2d_7">
      <g>
       <use style="stroke:#000000;" x="211.985717" xlink:href="#m34584a32ac" y="312.2584"/>
      </g>
     </g>
     <g id="text_7">
      <!-- 2012 -->
      <g transform="translate(214.899617 347.4336)rotate(-90)scale(0.1056 -0.1056)">
       <use xlink:href="#DejaVuSans-50"/>
       <use x="63.623047" xlink:href="#DejaVuSans-48"/>
       <use x="127.246094" xlink:href="#DejaVuSans-49"/>
       <use x="190.869141" xlink:href="#DejaVuSans-50"/>
      </g>
     </g>
    </g>
    <g id="xtick_8">
     <g id="line2d_8">
      <g>
       <use style="stroke:#000000;" x="237.76635" xlink:href="#m34584a32ac" y="312.2584"/>
      </g>
     </g>
     <g id="text_8">
      <!-- 2013 -->
      <defs>
       <path d="M 40.578125 39.3125 
Q 47.65625 37.796875 51.625 33 
Q 55.609375 28.21875 55.609375 21.1875 
Q 55.609375 10.40625 48.1875 4.484375 
Q 40.765625 -1.421875 27.09375 -1.421875 
Q 22.515625 -1.421875 17.65625 -0.515625 
Q 12.796875 0.390625 7.625 2.203125 
L 7.625 11.71875 
Q 11.71875 9.328125 16.59375 8.109375 
Q 21.484375 6.890625 26.8125 6.890625 
Q 36.078125 6.890625 40.9375 10.546875 
Q 45.796875 14.203125 45.796875 21.1875 
Q 45.796875 27.640625 41.28125 31.265625 
Q 36.765625 34.90625 28.71875 34.90625 
L 20.21875 34.90625 
L 20.21875 43.015625 
L 29.109375 43.015625 
Q 36.375 43.015625 40.234375 45.921875 
Q 44.09375 48.828125 44.09375 54.296875 
Q 44.09375 59.90625 40.109375 62.90625 
Q 36.140625 65.921875 28.71875 65.921875 
Q 24.65625 65.921875 20.015625 65.03125 
Q 15.375 64.15625 9.8125 62.3125 
L 9.8125 71.09375 
Q 15.4375 72.65625 20.34375 73.4375 
Q 25.25 74.21875 29.59375 74.21875 
Q 40.828125 74.21875 47.359375 69.109375 
Q 53.90625 64.015625 53.90625 55.328125 
Q 53.90625 49.265625 50.4375 45.09375 
Q 46.96875 40.921875 40.578125 39.3125 
z
" id="DejaVuSans-51"/>
      </defs>
      <g transform="translate(240.68025 347.4336)rotate(-90)scale(0.1056 -0.1056)">
       <use xlink:href="#DejaVuSans-50"/>
       <use x="63.623047" xlink:href="#DejaVuSans-48"/>
       <use x="127.246094" xlink:href="#DejaVuSans-49"/>
       <use x="190.869141" xlink:href="#DejaVuSans-51"/>
      </g>
     </g>
    </g>
    <g id="xtick_9">
     <g id="line2d_9">
      <g>
       <use style="stroke:#000000;" x="263.546983" xlink:href="#m34584a32ac" y="312.2584"/>
      </g>
     </g>
     <g id="text_9">
      <!-- 2014 -->
      <defs>
       <path d="M 37.796875 64.3125 
L 12.890625 25.390625 
L 37.796875 25.390625 
z
M 35.203125 72.90625 
L 47.609375 72.90625 
L 47.609375 25.390625 
L 58.015625 25.390625 
L 58.015625 17.1875 
L 47.609375 17.1875 
L 47.609375 0 
L 37.796875 0 
L 37.796875 17.1875 
L 4.890625 17.1875 
L 4.890625 26.703125 
z
" id="DejaVuSans-52"/>
      </defs>
      <g transform="translate(266.460883 347.4336)rotate(-90)scale(0.1056 -0.1056)">
       <use xlink:href="#DejaVuSans-50"/>
       <use x="63.623047" xlink:href="#DejaVuSans-48"/>
       <use x="127.246094" xlink:href="#DejaVuSans-49"/>
       <use x="190.869141" xlink:href="#DejaVuSans-52"/>
      </g>
     </g>
    </g>
    <g id="xtick_10">
     <g id="line2d_10">
      <g>
       <use style="stroke:#000000;" x="289.327617" xlink:href="#m34584a32ac" y="312.2584"/>
      </g>
     </g>
     <g id="text_10">
      <!-- 2015 -->
      <defs>
       <path d="M 10.796875 72.90625 
L 49.515625 72.90625 
L 49.515625 64.59375 
L 19.828125 64.59375 
L 19.828125 46.734375 
Q 21.96875 47.46875 24.109375 47.828125 
Q 26.265625 48.1875 28.421875 48.1875 
Q 40.625 48.1875 47.75 41.5 
Q 54.890625 34.8125 54.890625 23.390625 
Q 54.890625 11.625 47.5625 5.09375 
Q 40.234375 -1.421875 26.90625 -1.421875 
Q 22.3125 -1.421875 17.546875 -0.640625 
Q 12.796875 0.140625 7.71875 1.703125 
L 7.71875 11.625 
Q 12.109375 9.234375 16.796875 8.0625 
Q 21.484375 6.890625 26.703125 6.890625 
Q 35.15625 6.890625 40.078125 11.328125 
Q 45.015625 15.765625 45.015625 23.390625 
Q 45.015625 31 40.078125 35.4375 
Q 35.15625 39.890625 26.703125 39.890625 
Q 22.75 39.890625 18.8125 39.015625 
Q 14.890625 38.140625 10.796875 36.28125 
z
" id="DejaVuSans-53"/>
      </defs>
      <g transform="translate(292.241517 347.4336)rotate(-90)scale(0.1056 -0.1056)">
       <use xlink:href="#DejaVuSans-50"/>
       <use x="63.623047" xlink:href="#DejaVuSans-48"/>
       <use x="127.246094" xlink:href="#DejaVuSans-49"/>
       <use x="190.869141" xlink:href="#DejaVuSans-53"/>
      </g>
     </g>
    </g>
    <g id="xtick_11">
     <g id="line2d_11">
      <g>
       <use style="stroke:#000000;" x="315.10825" xlink:href="#m34584a32ac" y="312.2584"/>
      </g>
     </g>
     <g id="text_11">
      <!-- 2016 -->
      <g transform="translate(318.02215 347.4336)rotate(-90)scale(0.1056 -0.1056)">
       <use xlink:href="#DejaVuSans-50"/>
       <use x="63.623047" xlink:href="#DejaVuSans-48"/>
       <use x="127.246094" xlink:href="#DejaVuSans-49"/>
       <use x="190.869141" xlink:href="#DejaVuSans-54"/>
      </g>
     </g>
    </g>
    <g id="xtick_12">
     <g id="line2d_12">
      <g>
       <use style="stroke:#000000;" x="340.888883" xlink:href="#m34584a32ac" y="312.2584"/>
      </g>
     </g>
     <g id="text_12">
      <!-- 2017 -->
      <g transform="translate(343.802783 347.4336)rotate(-90)scale(0.1056 -0.1056)">
       <use xlink:href="#DejaVuSans-50"/>
       <use x="63.623047" xlink:href="#DejaVuSans-48"/>
       <use x="127.246094" xlink:href="#DejaVuSans-49"/>
       <use x="190.869141" xlink:href="#DejaVuSans-55"/>
      </g>
     </g>
    </g>
   </g>
   <g id="matplotlib.axis_2">
    <g id="ytick_1">
     <g id="line2d_13">
      <defs>
       <path d="M 0 0 
L -4.8 0 
" id="m159d3f2ca0" style="stroke:#000000;"/>
      </defs>
      <g>
       <use style="stroke:#000000;" x="44.4116" xlink:href="#m159d3f2ca0" y="301.291255"/>
      </g>
     </g>
     <g id="text_13">
      <!-- 0.02 -->
      <defs>
       <path d="M 10.6875 12.40625 
L 21 12.40625 
L 21 0 
L 10.6875 0 
z
" id="DejaVuSans-46"/>
      </defs>
      <g transform="translate(12.5991 305.30323)scale(0.1056 -0.1056)">
       <use xlink:href="#DejaVuSans-48"/>
       <use x="63.623047" xlink:href="#DejaVuSans-46"/>
       <use x="95.410156" xlink:href="#DejaVuSans-48"/>
       <use x="159.033203" xlink:href="#DejaVuSans-50"/>
      </g>
     </g>
    </g>
    <g id="ytick_2">
     <g id="line2d_14">
      <g>
       <use style="stroke:#000000;" x="44.4116" xlink:href="#m159d3f2ca0" y="240.526976"/>
      </g>
     </g>
     <g id="text_14">
      <!-- 0.04 -->
      <g transform="translate(12.5991 244.538951)scale(0.1056 -0.1056)">
       <use xlink:href="#DejaVuSans-48"/>
       <use x="63.623047" xlink:href="#DejaVuSans-46"/>
       <use x="95.410156" xlink:href="#DejaVuSans-48"/>
       <use x="159.033203" xlink:href="#DejaVuSans-52"/>
      </g>
     </g>
    </g>
    <g id="ytick_3">
     <g id="line2d_15">
      <g>
       <use style="stroke:#000000;" x="44.4116" xlink:href="#m159d3f2ca0" y="179.762696"/>
      </g>
     </g>
     <g id="text_15">
      <!-- 0.06 -->
      <g transform="translate(12.5991 183.774671)scale(0.1056 -0.1056)">
       <use xlink:href="#DejaVuSans-48"/>
       <use x="63.623047" xlink:href="#DejaVuSans-46"/>
       <use x="95.410156" xlink:href="#DejaVuSans-48"/>
       <use x="159.033203" xlink:href="#DejaVuSans-54"/>
      </g>
     </g>
    </g>
    <g id="ytick_4">
     <g id="line2d_16">
      <g>
       <use style="stroke:#000000;" x="44.4116" xlink:href="#m159d3f2ca0" y="118.998416"/>
      </g>
     </g>
     <g id="text_16">
      <!-- 0.08 -->
      <g transform="translate(12.5991 123.010391)scale(0.1056 -0.1056)">
       <use xlink:href="#DejaVuSans-48"/>
       <use x="63.623047" xlink:href="#DejaVuSans-46"/>
       <use x="95.410156" xlink:href="#DejaVuSans-48"/>
       <use x="159.033203" xlink:href="#DejaVuSans-56"/>
      </g>
     </g>
    </g>
    <g id="ytick_5">
     <g id="line2d_17">
      <g>
       <use style="stroke:#000000;" x="44.4116" xlink:href="#m159d3f2ca0" y="58.234136"/>
      </g>
     </g>
     <g id="text_17">
      <!-- 0.10 -->
      <g transform="translate(12.5991 62.246111)scale(0.1056 -0.1056)">
       <use xlink:href="#DejaVuSans-48"/>
       <use x="63.623047" xlink:href="#DejaVuSans-46"/>
       <use x="95.410156" xlink:href="#DejaVuSans-49"/>
       <use x="159.033203" xlink:href="#DejaVuSans-48"/>
      </g>
     </g>
    </g>
   </g>
   <g id="line2d_18">
    <path clip-path="url(#p8569bc4f05)" d="M 57.301917 251.15654 
L 57.301917 251.15654 
" style="fill:none;stroke:#4c4c4c;stroke-linecap:square;stroke-width:1.2;"/>
   </g>
   <g id="line2d_19">
    <path clip-path="url(#p8569bc4f05)" d="M 57.301917 246.39878 
L 57.301917 246.39878 
" style="fill:none;stroke:#4c4c4c;stroke-linecap:square;stroke-width:1.2;"/>
   </g>
   <g id="line2d_20">
    <path clip-path="url(#p8569bc4f05)" d="M 52.14579 251.15654 
L 62.458043 251.15654 
" style="fill:none;stroke:#4c4c4c;stroke-linecap:square;stroke-width:1.2;"/>
   </g>
   <g id="line2d_21">
    <path clip-path="url(#p8569bc4f05)" d="M 52.14579 246.39878 
L 62.458043 246.39878 
" style="fill:none;stroke:#4c4c4c;stroke-linecap:square;stroke-width:1.2;"/>
   </g>
   <g id="line2d_22">
    <path clip-path="url(#p8569bc4f05)" d="M 83.08255 208.958876 
L 83.08255 211.275685 
" style="fill:none;stroke:#4c4c4c;stroke-linecap:square;stroke-width:1.2;"/>
   </g>
   <g id="line2d_23">
    <path clip-path="url(#p8569bc4f05)" d="M 83.08255 195.855704 
L 83.08255 180.282049 
" style="fill:none;stroke:#4c4c4c;stroke-linecap:square;stroke-width:1.2;"/>
   </g>
   <g id="line2d_24">
    <path clip-path="url(#p8569bc4f05)" d="M 77.926423 211.275685 
L 88.238677 211.275685 
" style="fill:none;stroke:#4c4c4c;stroke-linecap:square;stroke-width:1.2;"/>
   </g>
   <g id="line2d_25">
    <path clip-path="url(#p8569bc4f05)" d="M 77.926423 180.282049 
L 88.238677 180.282049 
" style="fill:none;stroke:#4c4c4c;stroke-linecap:square;stroke-width:1.2;"/>
   </g>
   <g id="line2d_26">
    <path clip-path="url(#p8569bc4f05)" d="M 108.863183 237.523557 
L 108.863183 239.018783 
" style="fill:none;stroke:#4c4c4c;stroke-linecap:square;stroke-width:1.2;"/>
   </g>
   <g id="line2d_27">
    <path clip-path="url(#p8569bc4f05)" d="M 108.863183 208.274526 
L 108.863183 203.417792 
" style="fill:none;stroke:#4c4c4c;stroke-linecap:square;stroke-width:1.2;"/>
   </g>
   <g id="line2d_28">
    <path clip-path="url(#p8569bc4f05)" d="M 103.707057 239.018783 
L 114.01931 239.018783 
" style="fill:none;stroke:#4c4c4c;stroke-linecap:square;stroke-width:1.2;"/>
   </g>
   <g id="line2d_29">
    <path clip-path="url(#p8569bc4f05)" d="M 103.707057 203.417792 
L 114.01931 203.417792 
" style="fill:none;stroke:#4c4c4c;stroke-linecap:square;stroke-width:1.2;"/>
   </g>
   <g id="line2d_30">
    <path clip-path="url(#p8569bc4f05)" d="M 134.643817 225.72542 
L 134.643817 243.390017 
" style="fill:none;stroke:#4c4c4c;stroke-linecap:square;stroke-width:1.2;"/>
   </g>
   <g id="line2d_31">
    <path clip-path="url(#p8569bc4f05)" d="M 134.643817 209.177252 
L 134.643817 204.148361 
" style="fill:none;stroke:#4c4c4c;stroke-linecap:square;stroke-width:1.2;"/>
   </g>
   <g id="line2d_32">
    <path clip-path="url(#p8569bc4f05)" d="M 129.48769 243.390017 
L 139.799943 243.390017 
" style="fill:none;stroke:#4c4c4c;stroke-linecap:square;stroke-width:1.2;"/>
   </g>
   <g id="line2d_33">
    <path clip-path="url(#p8569bc4f05)" d="M 129.48769 204.148361 
L 139.799943 204.148361 
" style="fill:none;stroke:#4c4c4c;stroke-linecap:square;stroke-width:1.2;"/>
   </g>
   <g id="line2d_34">
    <path clip-path="url(#p8569bc4f05)" d="M 160.42445 235.310211 
L 160.42445 241.953191 
" style="fill:none;stroke:#4c4c4c;stroke-linecap:square;stroke-width:1.2;"/>
   </g>
   <g id="line2d_35">
    <path clip-path="url(#p8569bc4f05)" d="M 160.42445 227.560251 
L 160.42445 227.560251 
" style="fill:none;stroke:#4c4c4c;stroke-linecap:square;stroke-width:1.2;"/>
   </g>
   <g id="line2d_36">
    <path clip-path="url(#p8569bc4f05)" d="M 155.268323 241.953191 
L 165.580577 241.953191 
" style="fill:none;stroke:#4c4c4c;stroke-linecap:square;stroke-width:1.2;"/>
   </g>
   <g id="line2d_37">
    <path clip-path="url(#p8569bc4f05)" d="M 155.268323 227.560251 
L 165.580577 227.560251 
" style="fill:none;stroke:#4c4c4c;stroke-linecap:square;stroke-width:1.2;"/>
   </g>
   <g id="line2d_38">
    <path clip-path="url(#p8569bc4f05)" d="M 186.205083 249.040756 
L 186.205083 250.726181 
" style="fill:none;stroke:#4c4c4c;stroke-linecap:square;stroke-width:1.2;"/>
   </g>
   <g id="line2d_39">
    <path clip-path="url(#p8569bc4f05)" d="M 186.205083 232.963259 
L 186.205083 229.301716 
" style="fill:none;stroke:#4c4c4c;stroke-linecap:square;stroke-width:1.2;"/>
   </g>
   <g id="line2d_40">
    <path clip-path="url(#p8569bc4f05)" d="M 181.048957 250.726181 
L 191.36121 250.726181 
" style="fill:none;stroke:#4c4c4c;stroke-linecap:square;stroke-width:1.2;"/>
   </g>
   <g id="line2d_41">
    <path clip-path="url(#p8569bc4f05)" d="M 181.048957 229.301716 
L 191.36121 229.301716 
" style="fill:none;stroke:#4c4c4c;stroke-linecap:square;stroke-width:1.2;"/>
   </g>
   <g id="line2d_42">
    <path clip-path="url(#p8569bc4f05)" d="M 211.985717 254.671982 
L 211.985717 254.671982 
" style="fill:none;stroke:#4c4c4c;stroke-linecap:square;stroke-width:1.2;"/>
   </g>
   <g id="line2d_43">
    <path clip-path="url(#p8569bc4f05)" d="M 211.985717 245.683167 
L 211.985717 245.683167 
" style="fill:none;stroke:#4c4c4c;stroke-linecap:square;stroke-width:1.2;"/>
   </g>
   <g id="line2d_44">
    <path clip-path="url(#p8569bc4f05)" d="M 206.82959 254.671982 
L 217.141843 254.671982 
" style="fill:none;stroke:#4c4c4c;stroke-linecap:square;stroke-width:1.2;"/>
   </g>
   <g id="line2d_45">
    <path clip-path="url(#p8569bc4f05)" d="M 206.82959 245.683167 
L 217.141843 245.683167 
" style="fill:none;stroke:#4c4c4c;stroke-linecap:square;stroke-width:1.2;"/>
   </g>
   <g id="line2d_46">
    <path clip-path="url(#p8569bc4f05)" d="M 237.76635 267.509079 
L 237.76635 272.847671 
" style="fill:none;stroke:#4c4c4c;stroke-linecap:square;stroke-width:1.2;"/>
   </g>
   <g id="line2d_47">
    <path clip-path="url(#p8569bc4f05)" d="M 237.76635 247.497281 
L 237.76635 242.536285 
" style="fill:none;stroke:#4c4c4c;stroke-linecap:square;stroke-width:1.2;"/>
   </g>
   <g id="line2d_48">
    <path clip-path="url(#p8569bc4f05)" d="M 232.610223 272.847671 
L 242.922477 272.847671 
" style="fill:none;stroke:#4c4c4c;stroke-linecap:square;stroke-width:1.2;"/>
   </g>
   <g id="line2d_49">
    <path clip-path="url(#p8569bc4f05)" d="M 232.610223 242.536285 
L 242.922477 242.536285 
" style="fill:none;stroke:#4c4c4c;stroke-linecap:square;stroke-width:1.2;"/>
   </g>
   <g id="line2d_50">
    <path clip-path="url(#p8569bc4f05)" d="M 263.546983 269.014461 
L 263.546983 270.143179 
" style="fill:none;stroke:#4c4c4c;stroke-linecap:square;stroke-width:1.2;"/>
   </g>
   <g id="line2d_51">
    <path clip-path="url(#p8569bc4f05)" d="M 263.546983 265.01618 
L 263.546983 265.01618 
" style="fill:none;stroke:#4c4c4c;stroke-linecap:square;stroke-width:1.2;"/>
   </g>
   <g id="line2d_52">
    <path clip-path="url(#p8569bc4f05)" d="M 258.390857 270.143179 
L 268.70311 270.143179 
" style="fill:none;stroke:#4c4c4c;stroke-linecap:square;stroke-width:1.2;"/>
   </g>
   <g id="line2d_53">
    <path clip-path="url(#p8569bc4f05)" d="M 258.390857 265.01618 
L 268.70311 265.01618 
" style="fill:none;stroke:#4c4c4c;stroke-linecap:square;stroke-width:1.2;"/>
   </g>
   <g id="line2d_54">
    <path clip-path="url(#p8569bc4f05)" d="M 289.327617 285.827944 
L 289.327617 285.827944 
" style="fill:none;stroke:#4c4c4c;stroke-linecap:square;stroke-width:1.2;"/>
   </g>
   <g id="line2d_55">
    <path clip-path="url(#p8569bc4f05)" d="M 289.327617 283.930033 
L 289.327617 283.930033 
" style="fill:none;stroke:#4c4c4c;stroke-linecap:square;stroke-width:1.2;"/>
   </g>
   <g id="line2d_56">
    <path clip-path="url(#p8569bc4f05)" d="M 284.17149 285.827944 
L 294.483743 285.827944 
" style="fill:none;stroke:#4c4c4c;stroke-linecap:square;stroke-width:1.2;"/>
   </g>
   <g id="line2d_57">
    <path clip-path="url(#p8569bc4f05)" d="M 284.17149 283.930033 
L 294.483743 283.930033 
" style="fill:none;stroke:#4c4c4c;stroke-linecap:square;stroke-width:1.2;"/>
   </g>
   <g id="line2d_58">
    <path clip-path="url(#p8569bc4f05)" d="M 315.10825 276.520231 
L 315.10825 299.295818 
" style="fill:none;stroke:#4c4c4c;stroke-linecap:square;stroke-width:1.2;"/>
   </g>
   <g id="line2d_59">
    <path clip-path="url(#p8569bc4f05)" d="M 315.10825 255.307476 
L 315.10825 251.987047 
" style="fill:none;stroke:#4c4c4c;stroke-linecap:square;stroke-width:1.2;"/>
   </g>
   <g id="line2d_60">
    <path clip-path="url(#p8569bc4f05)" d="M 309.952123 299.295818 
L 320.264377 299.295818 
" style="fill:none;stroke:#4c4c4c;stroke-linecap:square;stroke-width:1.2;"/>
   </g>
   <g id="line2d_61">
    <path clip-path="url(#p8569bc4f05)" d="M 309.952123 251.987047 
L 320.264377 251.987047 
" style="fill:none;stroke:#4c4c4c;stroke-linecap:square;stroke-width:1.2;"/>
   </g>
   <g id="line2d_62">
    <path clip-path="url(#p8569bc4f05)" d="M 340.888883 289.216095 
L 340.888883 289.931761 
" style="fill:none;stroke:#4c4c4c;stroke-linecap:square;stroke-width:1.2;"/>
   </g>
   <g id="line2d_63">
    <path clip-path="url(#p8569bc4f05)" d="M 340.888883 282.521137 
L 340.888883 282.521137 
" style="fill:none;stroke:#4c4c4c;stroke-linecap:square;stroke-width:1.2;"/>
   </g>
   <g id="line2d_64">
    <path clip-path="url(#p8569bc4f05)" d="M 335.732757 289.931761 
L 346.04501 289.931761 
" style="fill:none;stroke:#4c4c4c;stroke-linecap:square;stroke-width:1.2;"/>
   </g>
   <g id="line2d_65">
    <path clip-path="url(#p8569bc4f05)" d="M 335.732757 282.521137 
L 346.04501 282.521137 
" style="fill:none;stroke:#4c4c4c;stroke-linecap:square;stroke-width:1.2;"/>
   </g>
   <g id="line2d_66">
    <path clip-path="url(#p8569bc4f05)" d="M 46.989663 247.365121 
L 67.61417 247.365121 
" style="fill:none;stroke:#4c4c4c;stroke-linecap:square;stroke-width:1.2;"/>
   </g>
   <g id="line2d_67">
    <path clip-path="url(#p8569bc4f05)" d="M 72.770297 207.001856 
L 93.394803 207.001856 
" style="fill:none;stroke:#4c4c4c;stroke-linecap:square;stroke-width:1.2;"/>
   </g>
   <g id="line2d_68">
    <path clip-path="url(#p8569bc4f05)" d="M 98.55093 235.625375 
L 119.175437 235.625375 
" style="fill:none;stroke:#4c4c4c;stroke-linecap:square;stroke-width:1.2;"/>
   </g>
   <g id="line2d_69">
    <path clip-path="url(#p8569bc4f05)" d="M 124.331563 221.593457 
L 144.95607 221.593457 
" style="fill:none;stroke:#4c4c4c;stroke-linecap:square;stroke-width:1.2;"/>
   </g>
   <g id="line2d_70">
    <path clip-path="url(#p8569bc4f05)" d="M 150.112197 231.735217 
L 170.736703 231.735217 
" style="fill:none;stroke:#4c4c4c;stroke-linecap:square;stroke-width:1.2;"/>
   </g>
   <g id="line2d_71">
    <path clip-path="url(#p8569bc4f05)" d="M 175.89283 246.68032 
L 196.517337 246.68032 
" style="fill:none;stroke:#4c4c4c;stroke-linecap:square;stroke-width:1.2;"/>
   </g>
   <g id="line2d_72">
    <path clip-path="url(#p8569bc4f05)" d="M 201.673463 246.156364 
L 222.29797 246.156364 
" style="fill:none;stroke:#4c4c4c;stroke-linecap:square;stroke-width:1.2;"/>
   </g>
   <g id="line2d_73">
    <path clip-path="url(#p8569bc4f05)" d="M 227.454097 260.032413 
L 248.078603 260.032413 
" style="fill:none;stroke:#4c4c4c;stroke-linecap:square;stroke-width:1.2;"/>
   </g>
   <g id="line2d_74">
    <path clip-path="url(#p8569bc4f05)" d="M 253.23473 268.88785 
L 273.859237 268.88785 
" style="fill:none;stroke:#4c4c4c;stroke-linecap:square;stroke-width:1.2;"/>
   </g>
   <g id="line2d_75">
    <path clip-path="url(#p8569bc4f05)" d="M 279.015363 284.584447 
L 299.63987 284.584447 
" style="fill:none;stroke:#4c4c4c;stroke-linecap:square;stroke-width:1.2;"/>
   </g>
   <g id="line2d_76">
    <path clip-path="url(#p8569bc4f05)" d="M 304.795997 267.63485 
L 325.420503 267.63485 
" style="fill:none;stroke:#4c4c4c;stroke-linecap:square;stroke-width:1.2;"/>
   </g>
   <g id="line2d_77">
    <path clip-path="url(#p8569bc4f05)" d="M 330.57663 287.705471 
L 351.201137 287.705471 
" style="fill:none;stroke:#4c4c4c;stroke-linecap:square;stroke-width:1.2;"/>
   </g>
   <g id="patch_15">
    <path d="M 44.4116 312.2584 
L 44.4116 27.0816 
" style="fill:none;stroke:#000000;stroke-linecap:square;stroke-linejoin:miter;"/>
   </g>
   <g id="patch_16">
    <path d="M 44.4116 312.2584 
L 353.7792 312.2584 
" style="fill:none;stroke:#000000;stroke-linecap:square;stroke-linejoin:miter;"/>
   </g>
   <g id="PathCollection_1">
    <defs>
     <path d="M 0 4 
C 1.060812 4 2.078319 3.578535 2.828427 2.828427 
C 3.578535 2.078319 4 1.060812 4 0 
C 4 -1.060812 3.578535 -2.078319 2.828427 -2.828427 
C 2.078319 -3.578535 1.060812 -4 0 -4 
C -1.060812 -4 -2.078319 -3.578535 -2.828427 -2.828427 
C -3.578535 -2.078319 -4 -1.060812 -4 0 
C -4 1.060812 -3.578535 2.078319 -2.828427 2.828427 
C -2.078319 3.578535 -1.060812 4 0 4 
z
" id="C0_0_87e76e7356"/>
    </defs>
   </g>
   <g id="PathCollection_2">
    <defs>
     <path d="M 0 4 
C 1.060812 4 2.078319 3.578535 2.828427 2.828427 
C 3.578535 2.078319 4 1.060812 4 0 
C 4 -1.060812 3.578535 -2.078319 2.828427 -2.828427 
C 2.078319 -3.578535 1.060812 -4 0 -4 
C -1.060812 -4 -2.078319 -3.578535 -2.828427 -2.828427 
C -3.578535 -2.078319 -4 -1.060812 -4 0 
C -4 1.060812 -3.578535 2.078319 -2.828427 2.828427 
C -2.078319 3.578535 -1.060812 4 0 4 
z
" id="C1_0_1ea83b25c8"/>
    </defs>
   </g>
   <g id="PathCollection_3">
    <defs>
     <path d="M 0 4 
C 1.060812 4 2.078319 3.578535 2.828427 2.828427 
C 3.578535 2.078319 4 1.060812 4 0 
C 4 -1.060812 3.578535 -2.078319 2.828427 -2.828427 
C 2.078319 -3.578535 1.060812 -4 0 -4 
C -1.060812 -4 -2.078319 -3.578535 -2.828427 -2.828427 
C -3.578535 -2.078319 -4 -1.060812 -4 0 
C -4 1.060812 -3.578535 2.078319 -2.828427 2.828427 
C -2.078319 3.578535 -1.060812 4 0 4 
z
" id="C2_0_f0294e215c"/>
    </defs>
   </g>
   <g id="PathCollection_4">
    <defs>
     <path d="M 0 4 
C 1.060812 4 2.078319 3.578535 2.828427 2.828427 
C 3.578535 2.078319 4 1.060812 4 0 
C 4 -1.060812 3.578535 -2.078319 2.828427 -2.828427 
C 2.078319 -3.578535 1.060812 -4 0 -4 
C -1.060812 -4 -2.078319 -3.578535 -2.828427 -2.828427 
C -3.578535 -2.078319 -4 -1.060812 -4 0 
C -4 1.060812 -3.578535 2.078319 -2.828427 2.828427 
C -2.078319 3.578535 -1.060812 4 0 4 
z
" id="C3_0_c657805f29"/>
    </defs>
   </g>
   <g id="PathCollection_5">
    <defs>
     <path d="M 0 4 
C 1.060812 4 2.078319 3.578535 2.828427 2.828427 
C 3.578535 2.078319 4 1.060812 4 0 
C 4 -1.060812 3.578535 -2.078319 2.828427 -2.828427 
C 2.078319 -3.578535 1.060812 -4 0 -4 
C -1.060812 -4 -2.078319 -3.578535 -2.828427 -2.828427 
C -3.578535 -2.078319 -4 -1.060812 -4 0 
C -4 1.060812 -3.578535 2.078319 -2.828427 2.828427 
C -2.078319 3.578535 -1.060812 4 0 4 
z
" id="C4_0_b610c1d6a5"/>
    </defs>
    <g clip-path="url(#p8569bc4f05)">
     <use style="fill:#0000ff;" x="160.42445" xlink:href="#C4_0_b610c1d6a5" y="239.519833"/>
    </g>
    <g clip-path="url(#p8569bc4f05)">
     <use style="fill:#0000ff;" x="160.42445" xlink:href="#C4_0_b610c1d6a5" y="239.519833"/>
    </g>
    <g clip-path="url(#p8569bc4f05)">
     <use style="fill:#0000ff;" x="160.42445" xlink:href="#C4_0_b610c1d6a5" y="239.519833"/>
    </g>
    <g clip-path="url(#p8569bc4f05)">
     <use style="fill:#0000ff;" x="160.42445" xlink:href="#C4_0_b610c1d6a5" y="239.519833"/>
    </g>
    <g clip-path="url(#p8569bc4f05)">
     <use style="fill:#0000ff;" x="160.42445" xlink:href="#C4_0_b610c1d6a5" y="239.519833"/>
    </g>
   </g>
   <g id="PathCollection_6">
    <defs>
     <path d="M 0 4 
C 1.060812 4 2.078319 3.578535 2.828427 2.828427 
C 3.578535 2.078319 4 1.060812 4 0 
C 4 -1.060812 3.578535 -2.078319 2.828427 -2.828427 
C 2.078319 -3.578535 1.060812 -4 0 -4 
C -1.060812 -4 -2.078319 -3.578535 -2.828427 -2.828427 
C -3.578535 -2.078319 -4 -1.060812 -4 0 
C -4 1.060812 -3.578535 2.078319 -2.828427 2.828427 
C -2.078319 3.578535 -1.060812 4 0 4 
z
" id="C5_0_f2da024392"/>
    </defs>
    <g clip-path="url(#p8569bc4f05)">
     <use style="fill:#0000ff;" x="186.205083" xlink:href="#C5_0_f2da024392" y="247.344112"/>
    </g>
    <g clip-path="url(#p8569bc4f05)">
     <use style="fill:#0000ff;" x="186.205083" xlink:href="#C5_0_f2da024392" y="247.344112"/>
    </g>
    <g clip-path="url(#p8569bc4f05)">
     <use style="fill:#0000ff;" x="186.205083" xlink:href="#C5_0_f2da024392" y="247.344112"/>
    </g>
    <g clip-path="url(#p8569bc4f05)">
     <use style="fill:#0000ff;" x="186.205083" xlink:href="#C5_0_f2da024392" y="247.344112"/>
    </g>
    <g clip-path="url(#p8569bc4f05)">
     <use style="fill:#0000ff;" x="186.205083" xlink:href="#C5_0_f2da024392" y="247.344112"/>
    </g>
   </g>
   <g id="PathCollection_7">
    <defs>
     <path d="M 0 4 
C 1.060812 4 2.078319 3.578535 2.828427 2.828427 
C 3.578535 2.078319 4 1.060812 4 0 
C 4 -1.060812 3.578535 -2.078319 2.828427 -2.828427 
C 2.078319 -3.578535 1.060812 -4 0 -4 
C -1.060812 -4 -2.078319 -3.578535 -2.828427 -2.828427 
C -3.578535 -2.078319 -4 -1.060812 -4 0 
C -4 1.060812 -3.578535 2.078319 -2.828427 2.828427 
C -2.078319 3.578535 -1.060812 4 0 4 
z
" id="C6_0_3f00171e79"/>
    </defs>
    <g clip-path="url(#p8569bc4f05)">
     <use style="fill:#0000ff;" x="211.985717" xlink:href="#C6_0_3f00171e79" y="256.183242"/>
    </g>
    <g clip-path="url(#p8569bc4f05)">
     <use style="fill:#0000ff;" x="211.985717" xlink:href="#C6_0_3f00171e79" y="256.183242"/>
    </g>
    <g clip-path="url(#p8569bc4f05)">
     <use style="fill:#0000ff;" x="211.985717" xlink:href="#C6_0_3f00171e79" y="256.183242"/>
    </g>
    <g clip-path="url(#p8569bc4f05)">
     <use style="fill:#0000ff;" x="211.985717" xlink:href="#C6_0_3f00171e79" y="256.183242"/>
    </g>
    <g clip-path="url(#p8569bc4f05)">
     <use style="fill:#0000ff;" x="211.985717" xlink:href="#C6_0_3f00171e79" y="256.183242"/>
    </g>
   </g>
   <g id="PathCollection_8">
    <defs>
     <path d="M 0 4 
C 1.060812 4 2.078319 3.578535 2.828427 2.828427 
C 3.578535 2.078319 4 1.060812 4 0 
C 4 -1.060812 3.578535 -2.078319 2.828427 -2.828427 
C 2.078319 -3.578535 1.060812 -4 0 -4 
C -1.060812 -4 -2.078319 -3.578535 -2.828427 -2.828427 
C -3.578535 -2.078319 -4 -1.060812 -4 0 
C -4 1.060812 -3.578535 2.078319 -2.828427 2.828427 
C -2.078319 3.578535 -1.060812 4 0 4 
z
" id="C7_0_681a7bf123"/>
    </defs>
    <g clip-path="url(#p8569bc4f05)">
     <use style="fill:#0000ff;" x="237.76635" xlink:href="#C7_0_681a7bf123" y="264.505423"/>
    </g>
    <g clip-path="url(#p8569bc4f05)">
     <use style="fill:#0000ff;" x="237.76635" xlink:href="#C7_0_681a7bf123" y="264.505423"/>
    </g>
    <g clip-path="url(#p8569bc4f05)">
     <use style="fill:#0000ff;" x="237.76635" xlink:href="#C7_0_681a7bf123" y="264.505423"/>
    </g>
    <g clip-path="url(#p8569bc4f05)">
     <use style="fill:#0000ff;" x="237.76635" xlink:href="#C7_0_681a7bf123" y="264.505423"/>
    </g>
    <g clip-path="url(#p8569bc4f05)">
     <use style="fill:#0000ff;" x="237.76635" xlink:href="#C7_0_681a7bf123" y="264.505423"/>
    </g>
   </g>
   <g id="PathCollection_9">
    <defs>
     <path d="M 0 4 
C 1.060812 4 2.078319 3.578535 2.828427 2.828427 
C 3.578535 2.078319 4 1.060812 4 0 
C 4 -1.060812 3.578535 -2.078319 2.828427 -2.828427 
C 2.078319 -3.578535 1.060812 -4 0 -4 
C -1.060812 -4 -2.078319 -3.578535 -2.828427 -2.828427 
C -3.578535 -2.078319 -4 -1.060812 -4 0 
C -4 1.060812 -3.578535 2.078319 -2.828427 2.828427 
C -2.078319 3.578535 -1.060812 4 0 4 
z
" id="C8_0_305ad2a86a"/>
    </defs>
    <g clip-path="url(#p8569bc4f05)">
     <use style="fill:#0000ff;" x="263.546983" xlink:href="#C8_0_305ad2a86a" y="270.738864"/>
    </g>
    <g clip-path="url(#p8569bc4f05)">
     <use style="fill:#0000ff;" x="263.546983" xlink:href="#C8_0_305ad2a86a" y="270.738864"/>
    </g>
    <g clip-path="url(#p8569bc4f05)">
     <use style="fill:#0000ff;" x="263.546983" xlink:href="#C8_0_305ad2a86a" y="270.738864"/>
    </g>
    <g clip-path="url(#p8569bc4f05)">
     <use style="fill:#0000ff;" x="263.546983" xlink:href="#C8_0_305ad2a86a" y="270.738864"/>
    </g>
    <g clip-path="url(#p8569bc4f05)">
     <use style="fill:#0000ff;" x="263.546983" xlink:href="#C8_0_305ad2a86a" y="270.738864"/>
    </g>
   </g>
   <g id="PathCollection_10">
    <defs>
     <path d="M 0 4 
C 1.060812 4 2.078319 3.578535 2.828427 2.828427 
C 3.578535 2.078319 4 1.060812 4 0 
C 4 -1.060812 3.578535 -2.078319 2.828427 -2.828427 
C 2.078319 -3.578535 1.060812 -4 0 -4 
C -1.060812 -4 -2.078319 -3.578535 -2.828427 -2.828427 
C -3.578535 -2.078319 -4 -1.060812 -4 0 
C -4 1.060812 -3.578535 2.078319 -2.828427 2.828427 
C -2.078319 3.578535 -1.060812 4 0 4 
z
" id="C9_0_0775757fb4"/>
    </defs>
    <g clip-path="url(#p8569bc4f05)">
     <use style="fill:#0000ff;" x="289.327617" xlink:href="#C9_0_0775757fb4" y="270.863519"/>
    </g>
    <g clip-path="url(#p8569bc4f05)">
     <use style="fill:#0000ff;" x="289.327617" xlink:href="#C9_0_0775757fb4" y="270.863519"/>
    </g>
    <g clip-path="url(#p8569bc4f05)">
     <use style="fill:#0000ff;" x="289.327617" xlink:href="#C9_0_0775757fb4" y="270.863519"/>
    </g>
    <g clip-path="url(#p8569bc4f05)">
     <use style="fill:#0000ff;" x="289.327617" xlink:href="#C9_0_0775757fb4" y="270.863519"/>
    </g>
    <g clip-path="url(#p8569bc4f05)">
     <use style="fill:#0000ff;" x="289.327617" xlink:href="#C9_0_0775757fb4" y="270.863519"/>
    </g>
   </g>
   <g id="PathCollection_11">
    <defs>
     <path d="M 0 4 
C 1.060812 4 2.078319 3.578535 2.828427 2.828427 
C 3.578535 2.078319 4 1.060812 4 0 
C 4 -1.060812 3.578535 -2.078319 2.828427 -2.828427 
C 2.078319 -3.578535 1.060812 -4 0 -4 
C -1.060812 -4 -2.078319 -3.578535 -2.828427 -2.828427 
C -3.578535 -2.078319 -4 -1.060812 -4 0 
C -4 1.060812 -3.578535 2.078319 -2.828427 2.828427 
C -2.078319 3.578535 -1.060812 4 0 4 
z
" id="Ca_0_71312446d7"/>
    </defs>
    <g clip-path="url(#p8569bc4f05)">
     <use style="fill:#0000ff;" x="315.10825" xlink:href="#Ca_0_71312446d7" y="269.581668"/>
    </g>
    <g clip-path="url(#p8569bc4f05)">
     <use style="fill:#0000ff;" x="315.10825" xlink:href="#Ca_0_71312446d7" y="269.581668"/>
    </g>
    <g clip-path="url(#p8569bc4f05)">
     <use style="fill:#0000ff;" x="315.10825" xlink:href="#Ca_0_71312446d7" y="269.581668"/>
    </g>
    <g clip-path="url(#p8569bc4f05)">
     <use style="fill:#0000ff;" x="315.10825" xlink:href="#Ca_0_71312446d7" y="269.581668"/>
    </g>
    <g clip-path="url(#p8569bc4f05)">
     <use style="fill:#0000ff;" x="315.10825" xlink:href="#Ca_0_71312446d7" y="269.581668"/>
    </g>
   </g>
   <g id="PathCollection_12">
    <defs>
     <path d="M 0 4 
C 1.060812 4 2.078319 3.578535 2.828427 2.828427 
C 3.578535 2.078319 4 1.060812 4 0 
C 4 -1.060812 3.578535 -2.078319 2.828427 -2.828427 
C 2.078319 -3.578535 1.060812 -4 0 -4 
C -1.060812 -4 -2.078319 -3.578535 -2.828427 -2.828427 
C -3.578535 -2.078319 -4 -1.060812 -4 0 
C -4 1.060812 -3.578535 2.078319 -2.828427 2.828427 
C -2.078319 3.578535 -1.060812 4 0 4 
z
" id="Cb_0_ccd21166fe"/>
    </defs>
   </g>
   <g id="text_18">
    <!-- Annual incidence / total prevalence -->
    <defs>
     <path d="M 34.1875 63.1875 
L 20.796875 26.90625 
L 47.609375 26.90625 
z
M 28.609375 72.90625 
L 39.796875 72.90625 
L 67.578125 0 
L 57.328125 0 
L 50.6875 18.703125 
L 17.828125 18.703125 
L 11.1875 0 
L 0.78125 0 
z
" id="DejaVuSans-65"/>
     <path d="M 54.890625 33.015625 
L 54.890625 0 
L 45.90625 0 
L 45.90625 32.71875 
Q 45.90625 40.484375 42.875 44.328125 
Q 39.84375 48.1875 33.796875 48.1875 
Q 26.515625 48.1875 22.3125 43.546875 
Q 18.109375 38.921875 18.109375 30.90625 
L 18.109375 0 
L 9.078125 0 
L 9.078125 54.6875 
L 18.109375 54.6875 
L 18.109375 46.1875 
Q 21.34375 51.125 25.703125 53.5625 
Q 30.078125 56 35.796875 56 
Q 45.21875 56 50.046875 50.171875 
Q 54.890625 44.34375 54.890625 33.015625 
z
" id="DejaVuSans-110"/>
     <path d="M 8.5 21.578125 
L 8.5 54.6875 
L 17.484375 54.6875 
L 17.484375 21.921875 
Q 17.484375 14.15625 20.5 10.265625 
Q 23.53125 6.390625 29.59375 6.390625 
Q 36.859375 6.390625 41.078125 11.03125 
Q 45.3125 15.671875 45.3125 23.6875 
L 45.3125 54.6875 
L 54.296875 54.6875 
L 54.296875 0 
L 45.3125 0 
L 45.3125 8.40625 
Q 42.046875 3.421875 37.71875 1 
Q 33.40625 -1.421875 27.6875 -1.421875 
Q 18.265625 -1.421875 13.375 4.4375 
Q 8.5 10.296875 8.5 21.578125 
z
M 31.109375 56 
z
" id="DejaVuSans-117"/>
     <path d="M 34.28125 27.484375 
Q 23.390625 27.484375 19.1875 25 
Q 14.984375 22.515625 14.984375 16.5 
Q 14.984375 11.71875 18.140625 8.90625 
Q 21.296875 6.109375 26.703125 6.109375 
Q 34.1875 6.109375 38.703125 11.40625 
Q 43.21875 16.703125 43.21875 25.484375 
L 43.21875 27.484375 
z
M 52.203125 31.203125 
L 52.203125 0 
L 43.21875 0 
L 43.21875 8.296875 
Q 40.140625 3.328125 35.546875 0.953125 
Q 30.953125 -1.421875 24.3125 -1.421875 
Q 15.921875 -1.421875 10.953125 3.296875 
Q 6 8.015625 6 15.921875 
Q 6 25.140625 12.171875 29.828125 
Q 18.359375 34.515625 30.609375 34.515625 
L 43.21875 34.515625 
L 43.21875 35.40625 
Q 43.21875 41.609375 39.140625 45 
Q 35.0625 48.390625 27.6875 48.390625 
Q 23 48.390625 18.546875 47.265625 
Q 14.109375 46.140625 10.015625 43.890625 
L 10.015625 52.203125 
Q 14.9375 54.109375 19.578125 55.046875 
Q 24.21875 56 28.609375 56 
Q 40.484375 56 46.34375 49.84375 
Q 52.203125 43.703125 52.203125 31.203125 
z
" id="DejaVuSans-97"/>
     <path d="M 9.421875 75.984375 
L 18.40625 75.984375 
L 18.40625 0 
L 9.421875 0 
z
" id="DejaVuSans-108"/>
     <path id="DejaVuSans-32"/>
     <path d="M 9.421875 54.6875 
L 18.40625 54.6875 
L 18.40625 0 
L 9.421875 0 
z
M 9.421875 75.984375 
L 18.40625 75.984375 
L 18.40625 64.59375 
L 9.421875 64.59375 
z
" id="DejaVuSans-105"/>
     <path d="M 48.78125 52.59375 
L 48.78125 44.1875 
Q 44.96875 46.296875 41.140625 47.34375 
Q 37.3125 48.390625 33.40625 48.390625 
Q 24.65625 48.390625 19.8125 42.84375 
Q 14.984375 37.3125 14.984375 27.296875 
Q 14.984375 17.28125 19.8125 11.734375 
Q 24.65625 6.203125 33.40625 6.203125 
Q 37.3125 6.203125 41.140625 7.25 
Q 44.96875 8.296875 48.78125 10.40625 
L 48.78125 2.09375 
Q 45.015625 0.34375 40.984375 -0.53125 
Q 36.96875 -1.421875 32.421875 -1.421875 
Q 20.0625 -1.421875 12.78125 6.34375 
Q 5.515625 14.109375 5.515625 27.296875 
Q 5.515625 40.671875 12.859375 48.328125 
Q 20.21875 56 33.015625 56 
Q 37.15625 56 41.109375 55.140625 
Q 45.0625 54.296875 48.78125 52.59375 
z
" id="DejaVuSans-99"/>
     <path d="M 45.40625 46.390625 
L 45.40625 75.984375 
L 54.390625 75.984375 
L 54.390625 0 
L 45.40625 0 
L 45.40625 8.203125 
Q 42.578125 3.328125 38.25 0.953125 
Q 33.9375 -1.421875 27.875 -1.421875 
Q 17.96875 -1.421875 11.734375 6.484375 
Q 5.515625 14.40625 5.515625 27.296875 
Q 5.515625 40.1875 11.734375 48.09375 
Q 17.96875 56 27.875 56 
Q 33.9375 56 38.25 53.625 
Q 42.578125 51.265625 45.40625 46.390625 
z
M 14.796875 27.296875 
Q 14.796875 17.390625 18.875 11.75 
Q 22.953125 6.109375 30.078125 6.109375 
Q 37.203125 6.109375 41.296875 11.75 
Q 45.40625 17.390625 45.40625 27.296875 
Q 45.40625 37.203125 41.296875 42.84375 
Q 37.203125 48.484375 30.078125 48.484375 
Q 22.953125 48.484375 18.875 42.84375 
Q 14.796875 37.203125 14.796875 27.296875 
z
" id="DejaVuSans-100"/>
     <path d="M 56.203125 29.59375 
L 56.203125 25.203125 
L 14.890625 25.203125 
Q 15.484375 15.921875 20.484375 11.0625 
Q 25.484375 6.203125 34.421875 6.203125 
Q 39.59375 6.203125 44.453125 7.46875 
Q 49.3125 8.734375 54.109375 11.28125 
L 54.109375 2.78125 
Q 49.265625 0.734375 44.1875 -0.34375 
Q 39.109375 -1.421875 33.890625 -1.421875 
Q 20.796875 -1.421875 13.15625 6.1875 
Q 5.515625 13.8125 5.515625 26.8125 
Q 5.515625 40.234375 12.765625 48.109375 
Q 20.015625 56 32.328125 56 
Q 43.359375 56 49.78125 48.890625 
Q 56.203125 41.796875 56.203125 29.59375 
z
M 47.21875 32.234375 
Q 47.125 39.59375 43.09375 43.984375 
Q 39.0625 48.390625 32.421875 48.390625 
Q 24.90625 48.390625 20.390625 44.140625 
Q 15.875 39.890625 15.1875 32.171875 
z
" id="DejaVuSans-101"/>
     <path d="M 25.390625 72.90625 
L 33.6875 72.90625 
L 8.296875 -9.28125 
L 0 -9.28125 
z
" id="DejaVuSans-47"/>
     <path d="M 18.3125 70.21875 
L 18.3125 54.6875 
L 36.8125 54.6875 
L 36.8125 47.703125 
L 18.3125 47.703125 
L 18.3125 18.015625 
Q 18.3125 11.328125 20.140625 9.421875 
Q 21.96875 7.515625 27.59375 7.515625 
L 36.8125 7.515625 
L 36.8125 0 
L 27.59375 0 
Q 17.1875 0 13.234375 3.875 
Q 9.28125 7.765625 9.28125 18.015625 
L 9.28125 47.703125 
L 2.6875 47.703125 
L 2.6875 54.6875 
L 9.28125 54.6875 
L 9.28125 70.21875 
z
" id="DejaVuSans-116"/>
     <path d="M 30.609375 48.390625 
Q 23.390625 48.390625 19.1875 42.75 
Q 14.984375 37.109375 14.984375 27.296875 
Q 14.984375 17.484375 19.15625 11.84375 
Q 23.34375 6.203125 30.609375 6.203125 
Q 37.796875 6.203125 41.984375 11.859375 
Q 46.1875 17.53125 46.1875 27.296875 
Q 46.1875 37.015625 41.984375 42.703125 
Q 37.796875 48.390625 30.609375 48.390625 
z
M 30.609375 56 
Q 42.328125 56 49.015625 48.375 
Q 55.71875 40.765625 55.71875 27.296875 
Q 55.71875 13.875 49.015625 6.21875 
Q 42.328125 -1.421875 30.609375 -1.421875 
Q 18.84375 -1.421875 12.171875 6.21875 
Q 5.515625 13.875 5.515625 27.296875 
Q 5.515625 40.765625 12.171875 48.375 
Q 18.84375 56 30.609375 56 
z
" id="DejaVuSans-111"/>
     <path d="M 18.109375 8.203125 
L 18.109375 -20.796875 
L 9.078125 -20.796875 
L 9.078125 54.6875 
L 18.109375 54.6875 
L 18.109375 46.390625 
Q 20.953125 51.265625 25.265625 53.625 
Q 29.59375 56 35.59375 56 
Q 45.5625 56 51.78125 48.09375 
Q 58.015625 40.1875 58.015625 27.296875 
Q 58.015625 14.40625 51.78125 6.484375 
Q 45.5625 -1.421875 35.59375 -1.421875 
Q 29.59375 -1.421875 25.265625 0.953125 
Q 20.953125 3.328125 18.109375 8.203125 
z
M 48.6875 27.296875 
Q 48.6875 37.203125 44.609375 42.84375 
Q 40.53125 48.484375 33.40625 48.484375 
Q 26.265625 48.484375 22.1875 42.84375 
Q 18.109375 37.203125 18.109375 27.296875 
Q 18.109375 17.390625 22.1875 11.75 
Q 26.265625 6.109375 33.40625 6.109375 
Q 40.53125 6.109375 44.609375 11.75 
Q 48.6875 17.390625 48.6875 27.296875 
z
" id="DejaVuSans-112"/>
     <path d="M 41.109375 46.296875 
Q 39.59375 47.171875 37.8125 47.578125 
Q 36.03125 48 33.890625 48 
Q 26.265625 48 22.1875 43.046875 
Q 18.109375 38.09375 18.109375 28.8125 
L 18.109375 0 
L 9.078125 0 
L 9.078125 54.6875 
L 18.109375 54.6875 
L 18.109375 46.1875 
Q 20.953125 51.171875 25.484375 53.578125 
Q 30.03125 56 36.53125 56 
Q 37.453125 56 38.578125 55.875 
Q 39.703125 55.765625 41.0625 55.515625 
z
" id="DejaVuSans-114"/>
     <path d="M 2.984375 54.6875 
L 12.5 54.6875 
L 29.59375 8.796875 
L 46.6875 54.6875 
L 56.203125 54.6875 
L 35.6875 0 
L 23.484375 0 
z
" id="DejaVuSans-118"/>
    </defs>
    <g transform="translate(97.1758 21.0816)scale(0.1152 -0.1152)">
     <use xlink:href="#DejaVuSans-65"/>
     <use x="68.408203" xlink:href="#DejaVuSans-110"/>
     <use x="131.787109" xlink:href="#DejaVuSans-110"/>
     <use x="195.166016" xlink:href="#DejaVuSans-117"/>
     <use x="258.544922" xlink:href="#DejaVuSans-97"/>
     <use x="319.824219" xlink:href="#DejaVuSans-108"/>
     <use x="347.607422" xlink:href="#DejaVuSans-32"/>
     <use x="379.394531" xlink:href="#DejaVuSans-105"/>
     <use x="407.177734" xlink:href="#DejaVuSans-110"/>
     <use x="470.556641" xlink:href="#DejaVuSans-99"/>
     <use x="525.537109" xlink:href="#DejaVuSans-105"/>
     <use x="553.320312" xlink:href="#DejaVuSans-100"/>
     <use x="616.796875" xlink:href="#DejaVuSans-101"/>
     <use x="678.320312" xlink:href="#DejaVuSans-110"/>
     <use x="741.699219" xlink:href="#DejaVuSans-99"/>
     <use x="796.679688" xlink:href="#DejaVuSans-101"/>
     <use x="858.203125" xlink:href="#DejaVuSans-32"/>
     <use x="889.990234" xlink:href="#DejaVuSans-47"/>
     <use x="923.681641" xlink:href="#DejaVuSans-32"/>
     <use x="955.46875" xlink:href="#DejaVuSans-116"/>
     <use x="994.677734" xlink:href="#DejaVuSans-111"/>
     <use x="1055.859375" xlink:href="#DejaVuSans-116"/>
     <use x="1095.068359" xlink:href="#DejaVuSans-97"/>
     <use x="1156.347656" xlink:href="#DejaVuSans-108"/>
     <use x="1184.130859" xlink:href="#DejaVuSans-32"/>
     <use x="1215.917969" xlink:href="#DejaVuSans-112"/>
     <use x="1279.394531" xlink:href="#DejaVuSans-114"/>
     <use x="1318.257812" xlink:href="#DejaVuSans-101"/>
     <use x="1379.78125" xlink:href="#DejaVuSans-118"/>
     <use x="1438.960938" xlink:href="#DejaVuSans-97"/>
     <use x="1500.240234" xlink:href="#DejaVuSans-108"/>
     <use x="1528.023438" xlink:href="#DejaVuSans-101"/>
     <use x="1589.546875" xlink:href="#DejaVuSans-110"/>
     <use x="1652.925781" xlink:href="#DejaVuSans-99"/>
     <use x="1707.90625" xlink:href="#DejaVuSans-101"/>
    </g>
   </g>
  </g>
  <g id="axes_2">
   <g id="patch_17">
    <path d="M 398.1908 312.2584 
L 707.5584 312.2584 
L 707.5584 27.0816 
L 398.1908 27.0816 
z
" style="fill:#ffffff;"/>
   </g>
   <g id="patch_18">
    <path clip-path="url(#p93c89f216f)" d="M 400.768863 190.405027 
L 421.39337 190.405027 
L 421.39337 169.728228 
L 400.768863 169.728228 
L 400.768863 190.405027 
z
" style="fill:#df9c20;stroke:#4c4c4c;stroke-linejoin:miter;stroke-width:1.2;"/>
   </g>
   <g id="patch_19">
    <path clip-path="url(#p93c89f216f)" d="M 426.549497 63.258163 
L 447.174003 63.258163 
L 447.174003 48.708383 
L 426.549497 48.708383 
L 426.549497 63.258163 
z
" style="fill:#df9c20;stroke:#4c4c4c;stroke-linejoin:miter;stroke-width:1.2;"/>
   </g>
   <g id="patch_20">
    <path clip-path="url(#p93c89f216f)" d="M 452.33013 140.656103 
L 472.954637 140.656103 
L 472.954637 115.915449 
L 452.33013 115.915449 
L 452.33013 140.656103 
z
" style="fill:#df9c20;stroke:#4c4c4c;stroke-linejoin:miter;stroke-width:1.2;"/>
   </g>
   <g id="patch_21">
    <path clip-path="url(#p93c89f216f)" d="M 478.110763 171.512825 
L 498.73527 171.512825 
L 498.73527 151.626706 
L 478.110763 151.626706 
L 478.110763 171.512825 
z
" style="fill:#df9c20;stroke:#4c4c4c;stroke-linejoin:miter;stroke-width:1.2;"/>
   </g>
   <g id="patch_22">
    <path clip-path="url(#p93c89f216f)" d="M 503.891397 247.737787 
L 524.515903 247.737787 
L 524.515903 244.407303 
L 503.891397 244.407303 
L 503.891397 247.737787 
z
" style="fill:#df9c20;stroke:#4c4c4c;stroke-linejoin:miter;stroke-width:1.2;"/>
   </g>
   <g id="patch_23">
    <path clip-path="url(#p93c89f216f)" d="M 529.67203 205.561805 
L 550.296537 205.561805 
L 550.296537 192.601343 
L 529.67203 192.601343 
L 529.67203 205.561805 
z
" style="fill:#df9c20;stroke:#4c4c4c;stroke-linejoin:miter;stroke-width:1.2;"/>
   </g>
   <g id="patch_24">
    <path clip-path="url(#p93c89f216f)" d="M 555.452663 217.842684 
L 576.07717 217.842684 
L 576.07717 211.778284 
L 555.452663 211.778284 
L 555.452663 217.842684 
z
" style="fill:#df9c20;stroke:#4c4c4c;stroke-linejoin:miter;stroke-width:1.2;"/>
   </g>
   <g id="patch_25">
    <path clip-path="url(#p93c89f216f)" d="M 581.233297 234.399485 
L 601.857803 234.399485 
L 601.857803 214.490917 
L 581.233297 214.490917 
L 581.233297 234.399485 
z
" style="fill:#df9c20;stroke:#4c4c4c;stroke-linejoin:miter;stroke-width:1.2;"/>
   </g>
   <g id="patch_26">
    <path clip-path="url(#p93c89f216f)" d="M 607.01393 237.1471 
L 627.638437 237.1471 
L 627.638437 224.421771 
L 607.01393 224.421771 
L 607.01393 237.1471 
z
" style="fill:#df9c20;stroke:#4c4c4c;stroke-linejoin:miter;stroke-width:1.2;"/>
   </g>
   <g id="patch_27">
    <path clip-path="url(#p93c89f216f)" d="M 632.794563 255.92491 
L 653.41907 255.92491 
L 653.41907 254.939016 
L 632.794563 254.939016 
L 632.794563 255.92491 
z
" style="fill:#df9c20;stroke:#4c4c4c;stroke-linejoin:miter;stroke-width:1.2;"/>
   </g>
   <g id="patch_28">
    <path clip-path="url(#p93c89f216f)" d="M 658.575197 240.369962 
L 679.199703 240.369962 
L 679.199703 227.605836 
L 658.575197 227.605836 
L 658.575197 240.369962 
z
" style="fill:#df9c20;stroke:#4c4c4c;stroke-linejoin:miter;stroke-width:1.2;"/>
   </g>
   <g id="patch_29">
    <path clip-path="url(#p93c89f216f)" d="M 684.35583 255.991758 
L 704.980337 255.991758 
L 704.980337 246.037817 
L 684.35583 246.037817 
L 684.35583 255.991758 
z
" style="fill:#df9c20;stroke:#4c4c4c;stroke-linejoin:miter;stroke-width:1.2;"/>
   </g>
   <g id="matplotlib.axis_3">
    <g id="xtick_13">
     <g id="line2d_78">
      <g>
       <use style="stroke:#000000;" x="411.081117" xlink:href="#m34584a32ac" y="312.2584"/>
      </g>
     </g>
     <g id="text_19">
      <!-- 2006 -->
      <g transform="translate(413.995017 347.4336)rotate(-90)scale(0.1056 -0.1056)">
       <use xlink:href="#DejaVuSans-50"/>
       <use x="63.623047" xlink:href="#DejaVuSans-48"/>
       <use x="127.246094" xlink:href="#DejaVuSans-48"/>
       <use x="190.869141" xlink:href="#DejaVuSans-54"/>
      </g>
     </g>
    </g>
    <g id="xtick_14">
     <g id="line2d_79">
      <g>
       <use style="stroke:#000000;" x="436.86175" xlink:href="#m34584a32ac" y="312.2584"/>
      </g>
     </g>
     <g id="text_20">
      <!-- 2007 -->
      <g transform="translate(439.77565 347.4336)rotate(-90)scale(0.1056 -0.1056)">
       <use xlink:href="#DejaVuSans-50"/>
       <use x="63.623047" xlink:href="#DejaVuSans-48"/>
       <use x="127.246094" xlink:href="#DejaVuSans-48"/>
       <use x="190.869141" xlink:href="#DejaVuSans-55"/>
      </g>
     </g>
    </g>
    <g id="xtick_15">
     <g id="line2d_80">
      <g>
       <use style="stroke:#000000;" x="462.642383" xlink:href="#m34584a32ac" y="312.2584"/>
      </g>
     </g>
     <g id="text_21">
      <!-- 2008 -->
      <g transform="translate(465.556283 347.4336)rotate(-90)scale(0.1056 -0.1056)">
       <use xlink:href="#DejaVuSans-50"/>
       <use x="63.623047" xlink:href="#DejaVuSans-48"/>
       <use x="127.246094" xlink:href="#DejaVuSans-48"/>
       <use x="190.869141" xlink:href="#DejaVuSans-56"/>
      </g>
     </g>
    </g>
    <g id="xtick_16">
     <g id="line2d_81">
      <g>
       <use style="stroke:#000000;" x="488.423017" xlink:href="#m34584a32ac" y="312.2584"/>
      </g>
     </g>
     <g id="text_22">
      <!-- 2009 -->
      <g transform="translate(491.336917 347.4336)rotate(-90)scale(0.1056 -0.1056)">
       <use xlink:href="#DejaVuSans-50"/>
       <use x="63.623047" xlink:href="#DejaVuSans-48"/>
       <use x="127.246094" xlink:href="#DejaVuSans-48"/>
       <use x="190.869141" xlink:href="#DejaVuSans-57"/>
      </g>
     </g>
    </g>
    <g id="xtick_17">
     <g id="line2d_82">
      <g>
       <use style="stroke:#000000;" x="514.20365" xlink:href="#m34584a32ac" y="312.2584"/>
      </g>
     </g>
     <g id="text_23">
      <!-- 2010 -->
      <g transform="translate(517.11755 347.4336)rotate(-90)scale(0.1056 -0.1056)">
       <use xlink:href="#DejaVuSans-50"/>
       <use x="63.623047" xlink:href="#DejaVuSans-48"/>
       <use x="127.246094" xlink:href="#DejaVuSans-49"/>
       <use x="190.869141" xlink:href="#DejaVuSans-48"/>
      </g>
     </g>
    </g>
    <g id="xtick_18">
     <g id="line2d_83">
      <g>
       <use style="stroke:#000000;" x="539.984283" xlink:href="#m34584a32ac" y="312.2584"/>
      </g>
     </g>
     <g id="text_24">
      <!-- 2011 -->
      <g transform="translate(542.898183 347.4336)rotate(-90)scale(0.1056 -0.1056)">
       <use xlink:href="#DejaVuSans-50"/>
       <use x="63.623047" xlink:href="#DejaVuSans-48"/>
       <use x="127.246094" xlink:href="#DejaVuSans-49"/>
       <use x="190.869141" xlink:href="#DejaVuSans-49"/>
      </g>
     </g>
    </g>
    <g id="xtick_19">
     <g id="line2d_84">
      <g>
       <use style="stroke:#000000;" x="565.764917" xlink:href="#m34584a32ac" y="312.2584"/>
      </g>
     </g>
     <g id="text_25">
      <!-- 2012 -->
      <g transform="translate(568.678817 347.4336)rotate(-90)scale(0.1056 -0.1056)">
       <use xlink:href="#DejaVuSans-50"/>
       <use x="63.623047" xlink:href="#DejaVuSans-48"/>
       <use x="127.246094" xlink:href="#DejaVuSans-49"/>
       <use x="190.869141" xlink:href="#DejaVuSans-50"/>
      </g>
     </g>
    </g>
    <g id="xtick_20">
     <g id="line2d_85">
      <g>
       <use style="stroke:#000000;" x="591.54555" xlink:href="#m34584a32ac" y="312.2584"/>
      </g>
     </g>
     <g id="text_26">
      <!-- 2013 -->
      <g transform="translate(594.45945 347.4336)rotate(-90)scale(0.1056 -0.1056)">
       <use xlink:href="#DejaVuSans-50"/>
       <use x="63.623047" xlink:href="#DejaVuSans-48"/>
       <use x="127.246094" xlink:href="#DejaVuSans-49"/>
       <use x="190.869141" xlink:href="#DejaVuSans-51"/>
      </g>
     </g>
    </g>
    <g id="xtick_21">
     <g id="line2d_86">
      <g>
       <use style="stroke:#000000;" x="617.326183" xlink:href="#m34584a32ac" y="312.2584"/>
      </g>
     </g>
     <g id="text_27">
      <!-- 2014 -->
      <g transform="translate(620.240083 347.4336)rotate(-90)scale(0.1056 -0.1056)">
       <use xlink:href="#DejaVuSans-50"/>
       <use x="63.623047" xlink:href="#DejaVuSans-48"/>
       <use x="127.246094" xlink:href="#DejaVuSans-49"/>
       <use x="190.869141" xlink:href="#DejaVuSans-52"/>
      </g>
     </g>
    </g>
    <g id="xtick_22">
     <g id="line2d_87">
      <g>
       <use style="stroke:#000000;" x="643.106817" xlink:href="#m34584a32ac" y="312.2584"/>
      </g>
     </g>
     <g id="text_28">
      <!-- 2015 -->
      <g transform="translate(646.020717 347.4336)rotate(-90)scale(0.1056 -0.1056)">
       <use xlink:href="#DejaVuSans-50"/>
       <use x="63.623047" xlink:href="#DejaVuSans-48"/>
       <use x="127.246094" xlink:href="#DejaVuSans-49"/>
       <use x="190.869141" xlink:href="#DejaVuSans-53"/>
      </g>
     </g>
    </g>
    <g id="xtick_23">
     <g id="line2d_88">
      <g>
       <use style="stroke:#000000;" x="668.88745" xlink:href="#m34584a32ac" y="312.2584"/>
      </g>
     </g>
     <g id="text_29">
      <!-- 2016 -->
      <g transform="translate(671.80135 347.4336)rotate(-90)scale(0.1056 -0.1056)">
       <use xlink:href="#DejaVuSans-50"/>
       <use x="63.623047" xlink:href="#DejaVuSans-48"/>
       <use x="127.246094" xlink:href="#DejaVuSans-49"/>
       <use x="190.869141" xlink:href="#DejaVuSans-54"/>
      </g>
     </g>
    </g>
    <g id="xtick_24">
     <g id="line2d_89">
      <g>
       <use style="stroke:#000000;" x="694.668083" xlink:href="#m34584a32ac" y="312.2584"/>
      </g>
     </g>
     <g id="text_30">
      <!-- 2017 -->
      <g transform="translate(697.581983 347.4336)rotate(-90)scale(0.1056 -0.1056)">
       <use xlink:href="#DejaVuSans-50"/>
       <use x="63.623047" xlink:href="#DejaVuSans-48"/>
       <use x="127.246094" xlink:href="#DejaVuSans-49"/>
       <use x="190.869141" xlink:href="#DejaVuSans-55"/>
      </g>
     </g>
    </g>
   </g>
   <g id="matplotlib.axis_4">
    <g id="ytick_6">
     <g id="line2d_90">
      <g>
       <use style="stroke:#000000;" x="398.1908" xlink:href="#m159d3f2ca0" y="301.291255"/>
      </g>
     </g>
     <g id="text_31">
      <!-- 0.02 -->
      <g transform="translate(366.3783 305.30323)scale(0.1056 -0.1056)">
       <use xlink:href="#DejaVuSans-48"/>
       <use x="63.623047" xlink:href="#DejaVuSans-46"/>
       <use x="95.410156" xlink:href="#DejaVuSans-48"/>
       <use x="159.033203" xlink:href="#DejaVuSans-50"/>
      </g>
     </g>
    </g>
    <g id="ytick_7">
     <g id="line2d_91">
      <g>
       <use style="stroke:#000000;" x="398.1908" xlink:href="#m159d3f2ca0" y="240.526976"/>
      </g>
     </g>
     <g id="text_32">
      <!-- 0.04 -->
      <g transform="translate(366.3783 244.538951)scale(0.1056 -0.1056)">
       <use xlink:href="#DejaVuSans-48"/>
       <use x="63.623047" xlink:href="#DejaVuSans-46"/>
       <use x="95.410156" xlink:href="#DejaVuSans-48"/>
       <use x="159.033203" xlink:href="#DejaVuSans-52"/>
      </g>
     </g>
    </g>
    <g id="ytick_8">
     <g id="line2d_92">
      <g>
       <use style="stroke:#000000;" x="398.1908" xlink:href="#m159d3f2ca0" y="179.762696"/>
      </g>
     </g>
     <g id="text_33">
      <!-- 0.06 -->
      <g transform="translate(366.3783 183.774671)scale(0.1056 -0.1056)">
       <use xlink:href="#DejaVuSans-48"/>
       <use x="63.623047" xlink:href="#DejaVuSans-46"/>
       <use x="95.410156" xlink:href="#DejaVuSans-48"/>
       <use x="159.033203" xlink:href="#DejaVuSans-54"/>
      </g>
     </g>
    </g>
    <g id="ytick_9">
     <g id="line2d_93">
      <g>
       <use style="stroke:#000000;" x="398.1908" xlink:href="#m159d3f2ca0" y="118.998416"/>
      </g>
     </g>
     <g id="text_34">
      <!-- 0.08 -->
      <g transform="translate(366.3783 123.010391)scale(0.1056 -0.1056)">
       <use xlink:href="#DejaVuSans-48"/>
       <use x="63.623047" xlink:href="#DejaVuSans-46"/>
       <use x="95.410156" xlink:href="#DejaVuSans-48"/>
       <use x="159.033203" xlink:href="#DejaVuSans-56"/>
      </g>
     </g>
    </g>
    <g id="ytick_10">
     <g id="line2d_94">
      <g>
       <use style="stroke:#000000;" x="398.1908" xlink:href="#m159d3f2ca0" y="58.234136"/>
      </g>
     </g>
     <g id="text_35">
      <!-- 0.10 -->
      <g transform="translate(366.3783 62.246111)scale(0.1056 -0.1056)">
       <use xlink:href="#DejaVuSans-48"/>
       <use x="63.623047" xlink:href="#DejaVuSans-46"/>
       <use x="95.410156" xlink:href="#DejaVuSans-49"/>
       <use x="159.033203" xlink:href="#DejaVuSans-48"/>
      </g>
     </g>
    </g>
   </g>
   <g id="line2d_95">
    <path clip-path="url(#p93c89f216f)" d="M 411.081117 190.405027 
L 411.081117 210.764879 
" style="fill:none;stroke:#4c4c4c;stroke-linecap:square;stroke-width:1.2;"/>
   </g>
   <g id="line2d_96">
    <path clip-path="url(#p93c89f216f)" d="M 411.081117 169.728228 
L 411.081117 161.495468 
" style="fill:none;stroke:#4c4c4c;stroke-linecap:square;stroke-width:1.2;"/>
   </g>
   <g id="line2d_97">
    <path clip-path="url(#p93c89f216f)" d="M 405.92499 210.764879 
L 416.237243 210.764879 
" style="fill:none;stroke:#4c4c4c;stroke-linecap:square;stroke-width:1.2;"/>
   </g>
   <g id="line2d_98">
    <path clip-path="url(#p93c89f216f)" d="M 405.92499 161.495468 
L 416.237243 161.495468 
" style="fill:none;stroke:#4c4c4c;stroke-linecap:square;stroke-width:1.2;"/>
   </g>
   <g id="line2d_99">
    <path clip-path="url(#p93c89f216f)" d="M 436.86175 63.258163 
L 436.86175 70.719947 
" style="fill:none;stroke:#4c4c4c;stroke-linecap:square;stroke-width:1.2;"/>
   </g>
   <g id="line2d_100">
    <path clip-path="url(#p93c89f216f)" d="M 436.86175 48.708383 
L 436.86175 40.044182 
" style="fill:none;stroke:#4c4c4c;stroke-linecap:square;stroke-width:1.2;"/>
   </g>
   <g id="line2d_101">
    <path clip-path="url(#p93c89f216f)" d="M 431.705623 70.719947 
L 442.017877 70.719947 
" style="fill:none;stroke:#4c4c4c;stroke-linecap:square;stroke-width:1.2;"/>
   </g>
   <g id="line2d_102">
    <path clip-path="url(#p93c89f216f)" d="M 431.705623 40.044182 
L 442.017877 40.044182 
" style="fill:none;stroke:#4c4c4c;stroke-linecap:square;stroke-width:1.2;"/>
   </g>
   <g id="line2d_103">
    <path clip-path="url(#p93c89f216f)" d="M 462.642383 140.656103 
L 462.642383 140.882869 
" style="fill:none;stroke:#4c4c4c;stroke-linecap:square;stroke-width:1.2;"/>
   </g>
   <g id="line2d_104">
    <path clip-path="url(#p93c89f216f)" d="M 462.642383 115.915449 
L 462.642383 102.666515 
" style="fill:none;stroke:#4c4c4c;stroke-linecap:square;stroke-width:1.2;"/>
   </g>
   <g id="line2d_105">
    <path clip-path="url(#p93c89f216f)" d="M 457.486257 140.882869 
L 467.79851 140.882869 
" style="fill:none;stroke:#4c4c4c;stroke-linecap:square;stroke-width:1.2;"/>
   </g>
   <g id="line2d_106">
    <path clip-path="url(#p93c89f216f)" d="M 457.486257 102.666515 
L 467.79851 102.666515 
" style="fill:none;stroke:#4c4c4c;stroke-linecap:square;stroke-width:1.2;"/>
   </g>
   <g id="line2d_107">
    <path clip-path="url(#p93c89f216f)" d="M 488.423017 171.512825 
L 488.423017 181.633737 
" style="fill:none;stroke:#4c4c4c;stroke-linecap:square;stroke-width:1.2;"/>
   </g>
   <g id="line2d_108">
    <path clip-path="url(#p93c89f216f)" d="M 488.423017 151.626706 
L 488.423017 147.001232 
" style="fill:none;stroke:#4c4c4c;stroke-linecap:square;stroke-width:1.2;"/>
   </g>
   <g id="line2d_109">
    <path clip-path="url(#p93c89f216f)" d="M 483.26689 181.633737 
L 493.579143 181.633737 
" style="fill:none;stroke:#4c4c4c;stroke-linecap:square;stroke-width:1.2;"/>
   </g>
   <g id="line2d_110">
    <path clip-path="url(#p93c89f216f)" d="M 483.26689 147.001232 
L 493.579143 147.001232 
" style="fill:none;stroke:#4c4c4c;stroke-linecap:square;stroke-width:1.2;"/>
   </g>
   <g id="line2d_111">
    <path clip-path="url(#p93c89f216f)" d="M 514.20365 247.737787 
L 514.20365 247.737787 
" style="fill:none;stroke:#4c4c4c;stroke-linecap:square;stroke-width:1.2;"/>
   </g>
   <g id="line2d_112">
    <path clip-path="url(#p93c89f216f)" d="M 514.20365 244.407303 
L 514.20365 244.407303 
" style="fill:none;stroke:#4c4c4c;stroke-linecap:square;stroke-width:1.2;"/>
   </g>
   <g id="line2d_113">
    <path clip-path="url(#p93c89f216f)" d="M 509.047523 247.737787 
L 519.359777 247.737787 
" style="fill:none;stroke:#4c4c4c;stroke-linecap:square;stroke-width:1.2;"/>
   </g>
   <g id="line2d_114">
    <path clip-path="url(#p93c89f216f)" d="M 509.047523 244.407303 
L 519.359777 244.407303 
" style="fill:none;stroke:#4c4c4c;stroke-linecap:square;stroke-width:1.2;"/>
   </g>
   <g id="line2d_115">
    <path clip-path="url(#p93c89f216f)" d="M 539.984283 205.561805 
L 539.984283 215.045181 
" style="fill:none;stroke:#4c4c4c;stroke-linecap:square;stroke-width:1.2;"/>
   </g>
   <g id="line2d_116">
    <path clip-path="url(#p93c89f216f)" d="M 539.984283 192.601343 
L 539.984283 187.271918 
" style="fill:none;stroke:#4c4c4c;stroke-linecap:square;stroke-width:1.2;"/>
   </g>
   <g id="line2d_117">
    <path clip-path="url(#p93c89f216f)" d="M 534.828157 215.045181 
L 545.14041 215.045181 
" style="fill:none;stroke:#4c4c4c;stroke-linecap:square;stroke-width:1.2;"/>
   </g>
   <g id="line2d_118">
    <path clip-path="url(#p93c89f216f)" d="M 534.828157 187.271918 
L 545.14041 187.271918 
" style="fill:none;stroke:#4c4c4c;stroke-linecap:square;stroke-width:1.2;"/>
   </g>
   <g id="line2d_119">
    <path clip-path="url(#p93c89f216f)" d="M 565.764917 217.842684 
L 565.764917 221.765847 
" style="fill:none;stroke:#4c4c4c;stroke-linecap:square;stroke-width:1.2;"/>
   </g>
   <g id="line2d_120">
    <path clip-path="url(#p93c89f216f)" d="M 565.764917 211.778284 
L 565.764917 211.778284 
" style="fill:none;stroke:#4c4c4c;stroke-linecap:square;stroke-width:1.2;"/>
   </g>
   <g id="line2d_121">
    <path clip-path="url(#p93c89f216f)" d="M 560.60879 221.765847 
L 570.921043 221.765847 
" style="fill:none;stroke:#4c4c4c;stroke-linecap:square;stroke-width:1.2;"/>
   </g>
   <g id="line2d_122">
    <path clip-path="url(#p93c89f216f)" d="M 560.60879 211.778284 
L 570.921043 211.778284 
" style="fill:none;stroke:#4c4c4c;stroke-linecap:square;stroke-width:1.2;"/>
   </g>
   <g id="line2d_123">
    <path clip-path="url(#p93c89f216f)" d="M 591.54555 234.399485 
L 591.54555 239.644007 
" style="fill:none;stroke:#4c4c4c;stroke-linecap:square;stroke-width:1.2;"/>
   </g>
   <g id="line2d_124">
    <path clip-path="url(#p93c89f216f)" d="M 591.54555 214.490917 
L 591.54555 210.144836 
" style="fill:none;stroke:#4c4c4c;stroke-linecap:square;stroke-width:1.2;"/>
   </g>
   <g id="line2d_125">
    <path clip-path="url(#p93c89f216f)" d="M 586.389423 239.644007 
L 596.701677 239.644007 
" style="fill:none;stroke:#4c4c4c;stroke-linecap:square;stroke-width:1.2;"/>
   </g>
   <g id="line2d_126">
    <path clip-path="url(#p93c89f216f)" d="M 586.389423 210.144836 
L 596.701677 210.144836 
" style="fill:none;stroke:#4c4c4c;stroke-linecap:square;stroke-width:1.2;"/>
   </g>
   <g id="line2d_127">
    <path clip-path="url(#p93c89f216f)" d="M 617.326183 237.1471 
L 617.326183 253.052424 
" style="fill:none;stroke:#4c4c4c;stroke-linecap:square;stroke-width:1.2;"/>
   </g>
   <g id="line2d_128">
    <path clip-path="url(#p93c89f216f)" d="M 617.326183 224.421771 
L 617.326183 208.590762 
" style="fill:none;stroke:#4c4c4c;stroke-linecap:square;stroke-width:1.2;"/>
   </g>
   <g id="line2d_129">
    <path clip-path="url(#p93c89f216f)" d="M 612.170057 253.052424 
L 622.48231 253.052424 
" style="fill:none;stroke:#4c4c4c;stroke-linecap:square;stroke-width:1.2;"/>
   </g>
   <g id="line2d_130">
    <path clip-path="url(#p93c89f216f)" d="M 612.170057 208.590762 
L 622.48231 208.590762 
" style="fill:none;stroke:#4c4c4c;stroke-linecap:square;stroke-width:1.2;"/>
   </g>
   <g id="line2d_131">
    <path clip-path="url(#p93c89f216f)" d="M 643.106817 255.92491 
L 643.106817 255.92491 
" style="fill:none;stroke:#4c4c4c;stroke-linecap:square;stroke-width:1.2;"/>
   </g>
   <g id="line2d_132">
    <path clip-path="url(#p93c89f216f)" d="M 643.106817 254.939016 
L 643.106817 254.939016 
" style="fill:none;stroke:#4c4c4c;stroke-linecap:square;stroke-width:1.2;"/>
   </g>
   <g id="line2d_133">
    <path clip-path="url(#p93c89f216f)" d="M 637.95069 255.92491 
L 648.262943 255.92491 
" style="fill:none;stroke:#4c4c4c;stroke-linecap:square;stroke-width:1.2;"/>
   </g>
   <g id="line2d_134">
    <path clip-path="url(#p93c89f216f)" d="M 637.95069 254.939016 
L 648.262943 254.939016 
" style="fill:none;stroke:#4c4c4c;stroke-linecap:square;stroke-width:1.2;"/>
   </g>
   <g id="line2d_135">
    <path clip-path="url(#p93c89f216f)" d="M 668.88745 240.369962 
L 668.88745 240.369962 
" style="fill:none;stroke:#4c4c4c;stroke-linecap:square;stroke-width:1.2;"/>
   </g>
   <g id="line2d_136">
    <path clip-path="url(#p93c89f216f)" d="M 668.88745 227.605836 
L 668.88745 227.605836 
" style="fill:none;stroke:#4c4c4c;stroke-linecap:square;stroke-width:1.2;"/>
   </g>
   <g id="line2d_137">
    <path clip-path="url(#p93c89f216f)" d="M 663.731323 240.369962 
L 674.043577 240.369962 
" style="fill:none;stroke:#4c4c4c;stroke-linecap:square;stroke-width:1.2;"/>
   </g>
   <g id="line2d_138">
    <path clip-path="url(#p93c89f216f)" d="M 663.731323 227.605836 
L 674.043577 227.605836 
" style="fill:none;stroke:#4c4c4c;stroke-linecap:square;stroke-width:1.2;"/>
   </g>
   <g id="line2d_139">
    <path clip-path="url(#p93c89f216f)" d="M 694.668083 255.991758 
L 694.668083 258.15208 
" style="fill:none;stroke:#4c4c4c;stroke-linecap:square;stroke-width:1.2;"/>
   </g>
   <g id="line2d_140">
    <path clip-path="url(#p93c89f216f)" d="M 694.668083 246.037817 
L 694.668083 243.473558 
" style="fill:none;stroke:#4c4c4c;stroke-linecap:square;stroke-width:1.2;"/>
   </g>
   <g id="line2d_141">
    <path clip-path="url(#p93c89f216f)" d="M 689.511957 258.15208 
L 699.82421 258.15208 
" style="fill:none;stroke:#4c4c4c;stroke-linecap:square;stroke-width:1.2;"/>
   </g>
   <g id="line2d_142">
    <path clip-path="url(#p93c89f216f)" d="M 689.511957 243.473558 
L 699.82421 243.473558 
" style="fill:none;stroke:#4c4c4c;stroke-linecap:square;stroke-width:1.2;"/>
   </g>
   <g id="line2d_143">
    <path clip-path="url(#p93c89f216f)" d="M 400.768863 174.511462 
L 421.39337 174.511462 
" style="fill:none;stroke:#4c4c4c;stroke-linecap:square;stroke-width:1.2;"/>
   </g>
   <g id="line2d_144">
    <path clip-path="url(#p93c89f216f)" d="M 426.549497 57.71831 
L 447.174003 57.71831 
" style="fill:none;stroke:#4c4c4c;stroke-linecap:square;stroke-width:1.2;"/>
   </g>
   <g id="line2d_145">
    <path clip-path="url(#p93c89f216f)" d="M 452.33013 117.574253 
L 472.954637 117.574253 
" style="fill:none;stroke:#4c4c4c;stroke-linecap:square;stroke-width:1.2;"/>
   </g>
   <g id="line2d_146">
    <path clip-path="url(#p93c89f216f)" d="M 478.110763 166.48188 
L 498.73527 166.48188 
" style="fill:none;stroke:#4c4c4c;stroke-linecap:square;stroke-width:1.2;"/>
   </g>
   <g id="line2d_147">
    <path clip-path="url(#p93c89f216f)" d="M 503.891397 245.738001 
L 524.515903 245.738001 
" style="fill:none;stroke:#4c4c4c;stroke-linecap:square;stroke-width:1.2;"/>
   </g>
   <g id="line2d_148">
    <path clip-path="url(#p93c89f216f)" d="M 529.67203 203.634377 
L 550.296537 203.634377 
" style="fill:none;stroke:#4c4c4c;stroke-linecap:square;stroke-width:1.2;"/>
   </g>
   <g id="line2d_149">
    <path clip-path="url(#p93c89f216f)" d="M 555.452663 214.671627 
L 576.07717 214.671627 
" style="fill:none;stroke:#4c4c4c;stroke-linecap:square;stroke-width:1.2;"/>
   </g>
   <g id="line2d_150">
    <path clip-path="url(#p93c89f216f)" d="M 581.233297 216.839845 
L 601.857803 216.839845 
" style="fill:none;stroke:#4c4c4c;stroke-linecap:square;stroke-width:1.2;"/>
   </g>
   <g id="line2d_151">
    <path clip-path="url(#p93c89f216f)" d="M 607.01393 233.985555 
L 627.638437 233.985555 
" style="fill:none;stroke:#4c4c4c;stroke-linecap:square;stroke-width:1.2;"/>
   </g>
   <g id="line2d_152">
    <path clip-path="url(#p93c89f216f)" d="M 632.794563 255.627682 
L 653.41907 255.627682 
" style="fill:none;stroke:#4c4c4c;stroke-linecap:square;stroke-width:1.2;"/>
   </g>
   <g id="line2d_153">
    <path clip-path="url(#p93c89f216f)" d="M 658.575197 232.007914 
L 679.199703 232.007914 
" style="fill:none;stroke:#4c4c4c;stroke-linecap:square;stroke-width:1.2;"/>
   </g>
   <g id="line2d_154">
    <path clip-path="url(#p93c89f216f)" d="M 684.35583 247.823111 
L 704.980337 247.823111 
" style="fill:none;stroke:#4c4c4c;stroke-linecap:square;stroke-width:1.2;"/>
   </g>
   <g id="patch_30">
    <path d="M 398.1908 312.2584 
L 398.1908 27.0816 
" style="fill:none;stroke:#000000;stroke-linecap:square;stroke-linejoin:miter;"/>
   </g>
   <g id="patch_31">
    <path d="M 398.1908 312.2584 
L 707.5584 312.2584 
" style="fill:none;stroke:#000000;stroke-linecap:square;stroke-linejoin:miter;"/>
   </g>
   <g id="PathCollection_13">
    <defs>
     <path d="M 0 4 
C 1.060812 4 2.078319 3.578535 2.828427 2.828427 
C 3.578535 2.078319 4 1.060812 4 0 
C 4 -1.060812 3.578535 -2.078319 2.828427 -2.828427 
C 2.078319 -3.578535 1.060812 -4 0 -4 
C -1.060812 -4 -2.078319 -3.578535 -2.828427 -2.828427 
C -3.578535 -2.078319 -4 -1.060812 -4 0 
C -4 1.060812 -3.578535 2.078319 -2.828427 2.828427 
C -2.078319 3.578535 -1.060812 4 0 4 
z
" id="Cc_0_f57103e9ac"/>
    </defs>
   </g>
   <g id="PathCollection_14">
    <defs>
     <path d="M 0 4 
C 1.060812 4 2.078319 3.578535 2.828427 2.828427 
C 3.578535 2.078319 4 1.060812 4 0 
C 4 -1.060812 3.578535 -2.078319 2.828427 -2.828427 
C 2.078319 -3.578535 1.060812 -4 0 -4 
C -1.060812 -4 -2.078319 -3.578535 -2.828427 -2.828427 
C -3.578535 -2.078319 -4 -1.060812 -4 0 
C -4 1.060812 -3.578535 2.078319 -2.828427 2.828427 
C -2.078319 3.578535 -1.060812 4 0 4 
z
" id="Cd_0_995a29f872"/>
    </defs>
   </g>
   <g id="PathCollection_15">
    <defs>
     <path d="M 0 4 
C 1.060812 4 2.078319 3.578535 2.828427 2.828427 
C 3.578535 2.078319 4 1.060812 4 0 
C 4 -1.060812 3.578535 -2.078319 2.828427 -2.828427 
C 2.078319 -3.578535 1.060812 -4 0 -4 
C -1.060812 -4 -2.078319 -3.578535 -2.828427 -2.828427 
C -3.578535 -2.078319 -4 -1.060812 -4 0 
C -4 1.060812 -3.578535 2.078319 -2.828427 2.828427 
C -2.078319 3.578535 -1.060812 4 0 4 
z
" id="Ce_0_deae472b94"/>
    </defs>
    <g clip-path="url(#p93c89f216f)">
     <use style="fill:#0000ff;" x="462.642383" xlink:href="#Ce_0_deae472b94" y="154.071361"/>
    </g>
    <g clip-path="url(#p93c89f216f)">
     <use style="fill:#0000ff;" x="462.642383" xlink:href="#Ce_0_deae472b94" y="154.071361"/>
    </g>
    <g clip-path="url(#p93c89f216f)">
     <use style="fill:#0000ff;" x="462.642383" xlink:href="#Ce_0_deae472b94" y="154.071361"/>
    </g>
    <g clip-path="url(#p93c89f216f)">
     <use style="fill:#0000ff;" x="462.642383" xlink:href="#Ce_0_deae472b94" y="154.071361"/>
    </g>
    <g clip-path="url(#p93c89f216f)">
     <use style="fill:#0000ff;" x="462.642383" xlink:href="#Ce_0_deae472b94" y="154.071361"/>
    </g>
   </g>
   <g id="PathCollection_16">
    <defs>
     <path d="M 0 4 
C 1.060812 4 2.078319 3.578535 2.828427 2.828427 
C 3.578535 2.078319 4 1.060812 4 0 
C 4 -1.060812 3.578535 -2.078319 2.828427 -2.828427 
C 2.078319 -3.578535 1.060812 -4 0 -4 
C -1.060812 -4 -2.078319 -3.578535 -2.828427 -2.828427 
C -3.578535 -2.078319 -4 -1.060812 -4 0 
C -4 1.060812 -3.578535 2.078319 -2.828427 2.828427 
C -2.078319 3.578535 -1.060812 4 0 4 
z
" id="Cf_0_cfcd051556"/>
    </defs>
    <g clip-path="url(#p93c89f216f)">
     <use style="fill:#0000ff;" x="488.423017" xlink:href="#Cf_0_cfcd051556" y="182.045625"/>
    </g>
    <g clip-path="url(#p93c89f216f)">
     <use style="fill:#0000ff;" x="488.423017" xlink:href="#Cf_0_cfcd051556" y="182.045625"/>
    </g>
    <g clip-path="url(#p93c89f216f)">
     <use style="fill:#0000ff;" x="488.423017" xlink:href="#Cf_0_cfcd051556" y="182.045625"/>
    </g>
    <g clip-path="url(#p93c89f216f)">
     <use style="fill:#0000ff;" x="488.423017" xlink:href="#Cf_0_cfcd051556" y="182.045625"/>
    </g>
    <g clip-path="url(#p93c89f216f)">
     <use style="fill:#0000ff;" x="488.423017" xlink:href="#Cf_0_cfcd051556" y="182.045625"/>
    </g>
   </g>
   <g id="PathCollection_17">
    <defs>
     <path d="M 0 4 
C 1.060812 4 2.078319 3.578535 2.828427 2.828427 
C 3.578535 2.078319 4 1.060812 4 0 
C 4 -1.060812 3.578535 -2.078319 2.828427 -2.828427 
C 2.078319 -3.578535 1.060812 -4 0 -4 
C -1.060812 -4 -2.078319 -3.578535 -2.828427 -2.828427 
C -3.578535 -2.078319 -4 -1.060812 -4 0 
C -4 1.060812 -3.578535 2.078319 -2.828427 2.828427 
C -2.078319 3.578535 -1.060812 4 0 4 
z
" id="C10_0_569576a78e"/>
    </defs>
    <g clip-path="url(#p93c89f216f)">
     <use style="fill:#0000ff;" x="514.20365" xlink:href="#C10_0_569576a78e" y="199.710391"/>
    </g>
    <g clip-path="url(#p93c89f216f)">
     <use style="fill:#0000ff;" x="514.20365" xlink:href="#C10_0_569576a78e" y="199.710391"/>
    </g>
    <g clip-path="url(#p93c89f216f)">
     <use style="fill:#0000ff;" x="514.20365" xlink:href="#C10_0_569576a78e" y="199.710391"/>
    </g>
    <g clip-path="url(#p93c89f216f)">
     <use style="fill:#0000ff;" x="514.20365" xlink:href="#C10_0_569576a78e" y="199.710391"/>
    </g>
    <g clip-path="url(#p93c89f216f)">
     <use style="fill:#0000ff;" x="514.20365" xlink:href="#C10_0_569576a78e" y="199.710391"/>
    </g>
   </g>
   <g id="PathCollection_18">
    <defs>
     <path d="M 0 4 
C 1.060812 4 2.078319 3.578535 2.828427 2.828427 
C 3.578535 2.078319 4 1.060812 4 0 
C 4 -1.060812 3.578535 -2.078319 2.828427 -2.828427 
C 2.078319 -3.578535 1.060812 -4 0 -4 
C -1.060812 -4 -2.078319 -3.578535 -2.828427 -2.828427 
C -3.578535 -2.078319 -4 -1.060812 -4 0 
C -4 1.060812 -3.578535 2.078319 -2.828427 2.828427 
C -2.078319 3.578535 -1.060812 4 0 4 
z
" id="C11_0_5a019235c4"/>
    </defs>
    <g clip-path="url(#p93c89f216f)">
     <use style="fill:#0000ff;" x="539.984283" xlink:href="#C11_0_5a019235c4" y="216.523875"/>
    </g>
    <g clip-path="url(#p93c89f216f)">
     <use style="fill:#0000ff;" x="539.984283" xlink:href="#C11_0_5a019235c4" y="216.523875"/>
    </g>
    <g clip-path="url(#p93c89f216f)">
     <use style="fill:#0000ff;" x="539.984283" xlink:href="#C11_0_5a019235c4" y="216.523875"/>
    </g>
    <g clip-path="url(#p93c89f216f)">
     <use style="fill:#0000ff;" x="539.984283" xlink:href="#C11_0_5a019235c4" y="216.523875"/>
    </g>
    <g clip-path="url(#p93c89f216f)">
     <use style="fill:#0000ff;" x="539.984283" xlink:href="#C11_0_5a019235c4" y="216.523875"/>
    </g>
   </g>
   <g id="PathCollection_19">
    <defs>
     <path d="M 0 4 
C 1.060812 4 2.078319 3.578535 2.828427 2.828427 
C 3.578535 2.078319 4 1.060812 4 0 
C 4 -1.060812 3.578535 -2.078319 2.828427 -2.828427 
C 2.078319 -3.578535 1.060812 -4 0 -4 
C -1.060812 -4 -2.078319 -3.578535 -2.828427 -2.828427 
C -3.578535 -2.078319 -4 -1.060812 -4 0 
C -4 1.060812 -3.578535 2.078319 -2.828427 2.828427 
C -2.078319 3.578535 -1.060812 4 0 4 
z
" id="C12_0_4518c7c2a4"/>
    </defs>
    <g clip-path="url(#p93c89f216f)">
     <use style="fill:#0000ff;" x="565.764917" xlink:href="#C12_0_4518c7c2a4" y="229.547522"/>
    </g>
    <g clip-path="url(#p93c89f216f)">
     <use style="fill:#0000ff;" x="565.764917" xlink:href="#C12_0_4518c7c2a4" y="229.547522"/>
    </g>
    <g clip-path="url(#p93c89f216f)">
     <use style="fill:#0000ff;" x="565.764917" xlink:href="#C12_0_4518c7c2a4" y="229.547522"/>
    </g>
    <g clip-path="url(#p93c89f216f)">
     <use style="fill:#0000ff;" x="565.764917" xlink:href="#C12_0_4518c7c2a4" y="229.547522"/>
    </g>
    <g clip-path="url(#p93c89f216f)">
     <use style="fill:#0000ff;" x="565.764917" xlink:href="#C12_0_4518c7c2a4" y="229.547522"/>
    </g>
   </g>
   <g id="PathCollection_20">
    <defs>
     <path d="M 0 4 
C 1.060812 4 2.078319 3.578535 2.828427 2.828427 
C 3.578535 2.078319 4 1.060812 4 0 
C 4 -1.060812 3.578535 -2.078319 2.828427 -2.828427 
C 2.078319 -3.578535 1.060812 -4 0 -4 
C -1.060812 -4 -2.078319 -3.578535 -2.828427 -2.828427 
C -3.578535 -2.078319 -4 -1.060812 -4 0 
C -4 1.060812 -3.578535 2.078319 -2.828427 2.828427 
C -2.078319 3.578535 -1.060812 4 0 4 
z
" id="C13_0_82dc2554fb"/>
    </defs>
    <g clip-path="url(#p93c89f216f)">
     <use style="fill:#0000ff;" x="591.54555" xlink:href="#C13_0_82dc2554fb" y="240.024791"/>
    </g>
    <g clip-path="url(#p93c89f216f)">
     <use style="fill:#0000ff;" x="591.54555" xlink:href="#C13_0_82dc2554fb" y="240.024791"/>
    </g>
    <g clip-path="url(#p93c89f216f)">
     <use style="fill:#0000ff;" x="591.54555" xlink:href="#C13_0_82dc2554fb" y="240.024791"/>
    </g>
    <g clip-path="url(#p93c89f216f)">
     <use style="fill:#0000ff;" x="591.54555" xlink:href="#C13_0_82dc2554fb" y="240.024791"/>
    </g>
    <g clip-path="url(#p93c89f216f)">
     <use style="fill:#0000ff;" x="591.54555" xlink:href="#C13_0_82dc2554fb" y="240.024791"/>
    </g>
   </g>
   <g id="PathCollection_21">
    <defs>
     <path d="M 0 4 
C 1.060812 4 2.078319 3.578535 2.828427 2.828427 
C 3.578535 2.078319 4 1.060812 4 0 
C 4 -1.060812 3.578535 -2.078319 2.828427 -2.828427 
C 2.078319 -3.578535 1.060812 -4 0 -4 
C -1.060812 -4 -2.078319 -3.578535 -2.828427 -2.828427 
C -3.578535 -2.078319 -4 -1.060812 -4 0 
C -4 1.060812 -3.578535 2.078319 -2.828427 2.828427 
C -2.078319 3.578535 -1.060812 4 0 4 
z
" id="C14_0_922dcf164c"/>
    </defs>
    <g clip-path="url(#p93c89f216f)">
     <use style="fill:#0000ff;" x="617.326183" xlink:href="#C14_0_922dcf164c" y="242.641349"/>
    </g>
    <g clip-path="url(#p93c89f216f)">
     <use style="fill:#0000ff;" x="617.326183" xlink:href="#C14_0_922dcf164c" y="242.641349"/>
    </g>
    <g clip-path="url(#p93c89f216f)">
     <use style="fill:#0000ff;" x="617.326183" xlink:href="#C14_0_922dcf164c" y="242.641349"/>
    </g>
    <g clip-path="url(#p93c89f216f)">
     <use style="fill:#0000ff;" x="617.326183" xlink:href="#C14_0_922dcf164c" y="242.641349"/>
    </g>
    <g clip-path="url(#p93c89f216f)">
     <use style="fill:#0000ff;" x="617.326183" xlink:href="#C14_0_922dcf164c" y="242.641349"/>
    </g>
   </g>
   <g id="PathCollection_22">
    <defs>
     <path d="M 0 4 
C 1.060812 4 2.078319 3.578535 2.828427 2.828427 
C 3.578535 2.078319 4 1.060812 4 0 
C 4 -1.060812 3.578535 -2.078319 2.828427 -2.828427 
C 2.078319 -3.578535 1.060812 -4 0 -4 
C -1.060812 -4 -2.078319 -3.578535 -2.828427 -2.828427 
C -3.578535 -2.078319 -4 -1.060812 -4 0 
C -4 1.060812 -3.578535 2.078319 -2.828427 2.828427 
C -2.078319 3.578535 -1.060812 4 0 4 
z
" id="C15_0_350d045485"/>
    </defs>
    <g clip-path="url(#p93c89f216f)">
     <use style="fill:#0000ff;" x="643.106817" xlink:href="#C15_0_350d045485" y="249.910677"/>
    </g>
    <g clip-path="url(#p93c89f216f)">
     <use style="fill:#0000ff;" x="643.106817" xlink:href="#C15_0_350d045485" y="249.910677"/>
    </g>
    <g clip-path="url(#p93c89f216f)">
     <use style="fill:#0000ff;" x="643.106817" xlink:href="#C15_0_350d045485" y="249.910677"/>
    </g>
    <g clip-path="url(#p93c89f216f)">
     <use style="fill:#0000ff;" x="643.106817" xlink:href="#C15_0_350d045485" y="249.910677"/>
    </g>
    <g clip-path="url(#p93c89f216f)">
     <use style="fill:#0000ff;" x="643.106817" xlink:href="#C15_0_350d045485" y="249.910677"/>
    </g>
   </g>
   <g id="PathCollection_23">
    <defs>
     <path d="M 0 4 
C 1.060812 4 2.078319 3.578535 2.828427 2.828427 
C 3.578535 2.078319 4 1.060812 4 0 
C 4 -1.060812 3.578535 -2.078319 2.828427 -2.828427 
C 2.078319 -3.578535 1.060812 -4 0 -4 
C -1.060812 -4 -2.078319 -3.578535 -2.828427 -2.828427 
C -3.578535 -2.078319 -4 -1.060812 -4 0 
C -4 1.060812 -3.578535 2.078319 -2.828427 2.828427 
C -2.078319 3.578535 -1.060812 4 0 4 
z
" id="C16_0_7b936d3d57"/>
    </defs>
    <g clip-path="url(#p93c89f216f)">
     <use style="fill:#0000ff;" x="668.88745" xlink:href="#C16_0_7b936d3d57" y="250.42061"/>
    </g>
    <g clip-path="url(#p93c89f216f)">
     <use style="fill:#0000ff;" x="668.88745" xlink:href="#C16_0_7b936d3d57" y="250.42061"/>
    </g>
    <g clip-path="url(#p93c89f216f)">
     <use style="fill:#0000ff;" x="668.88745" xlink:href="#C16_0_7b936d3d57" y="250.42061"/>
    </g>
    <g clip-path="url(#p93c89f216f)">
     <use style="fill:#0000ff;" x="668.88745" xlink:href="#C16_0_7b936d3d57" y="250.42061"/>
    </g>
    <g clip-path="url(#p93c89f216f)">
     <use style="fill:#0000ff;" x="668.88745" xlink:href="#C16_0_7b936d3d57" y="250.42061"/>
    </g>
   </g>
   <g id="PathCollection_24">
    <defs>
     <path d="M 0 4 
C 1.060812 4 2.078319 3.578535 2.828427 2.828427 
C 3.578535 2.078319 4 1.060812 4 0 
C 4 -1.060812 3.578535 -2.078319 2.828427 -2.828427 
C 2.078319 -3.578535 1.060812 -4 0 -4 
C -1.060812 -4 -2.078319 -3.578535 -2.828427 -2.828427 
C -3.578535 -2.078319 -4 -1.060812 -4 0 
C -4 1.060812 -3.578535 2.078319 -2.828427 2.828427 
C -2.078319 3.578535 -1.060812 4 0 4 
z
" id="C17_0_6f2398623a"/>
    </defs>
   </g>
   <g id="text_36">
    <!-- Annual diagnosis / diagnosed prevalence -->
    <defs>
     <path d="M 45.40625 27.984375 
Q 45.40625 37.75 41.375 43.109375 
Q 37.359375 48.484375 30.078125 48.484375 
Q 22.859375 48.484375 18.828125 43.109375 
Q 14.796875 37.75 14.796875 27.984375 
Q 14.796875 18.265625 18.828125 12.890625 
Q 22.859375 7.515625 30.078125 7.515625 
Q 37.359375 7.515625 41.375 12.890625 
Q 45.40625 18.265625 45.40625 27.984375 
z
M 54.390625 6.78125 
Q 54.390625 -7.171875 48.1875 -13.984375 
Q 42 -20.796875 29.203125 -20.796875 
Q 24.46875 -20.796875 20.265625 -20.09375 
Q 16.0625 -19.390625 12.109375 -17.921875 
L 12.109375 -9.1875 
Q 16.0625 -11.328125 19.921875 -12.34375 
Q 23.78125 -13.375 27.78125 -13.375 
Q 36.625 -13.375 41.015625 -8.765625 
Q 45.40625 -4.15625 45.40625 5.171875 
L 45.40625 9.625 
Q 42.625 4.78125 38.28125 2.390625 
Q 33.9375 0 27.875 0 
Q 17.828125 0 11.671875 7.65625 
Q 5.515625 15.328125 5.515625 27.984375 
Q 5.515625 40.671875 11.671875 48.328125 
Q 17.828125 56 27.875 56 
Q 33.9375 56 38.28125 53.609375 
Q 42.625 51.21875 45.40625 46.390625 
L 45.40625 54.6875 
L 54.390625 54.6875 
z
" id="DejaVuSans-103"/>
     <path d="M 44.28125 53.078125 
L 44.28125 44.578125 
Q 40.484375 46.53125 36.375 47.5 
Q 32.28125 48.484375 27.875 48.484375 
Q 21.1875 48.484375 17.84375 46.4375 
Q 14.5 44.390625 14.5 40.28125 
Q 14.5 37.15625 16.890625 35.375 
Q 19.28125 33.59375 26.515625 31.984375 
L 29.59375 31.296875 
Q 39.15625 29.25 43.1875 25.515625 
Q 47.21875 21.78125 47.21875 15.09375 
Q 47.21875 7.46875 41.1875 3.015625 
Q 35.15625 -1.421875 24.609375 -1.421875 
Q 20.21875 -1.421875 15.453125 -0.5625 
Q 10.6875 0.296875 5.421875 2 
L 5.421875 11.28125 
Q 10.40625 8.6875 15.234375 7.390625 
Q 20.0625 6.109375 24.8125 6.109375 
Q 31.15625 6.109375 34.5625 8.28125 
Q 37.984375 10.453125 37.984375 14.40625 
Q 37.984375 18.0625 35.515625 20.015625 
Q 33.0625 21.96875 24.703125 23.78125 
L 21.578125 24.515625 
Q 13.234375 26.265625 9.515625 29.90625 
Q 5.8125 33.546875 5.8125 39.890625 
Q 5.8125 47.609375 11.28125 51.796875 
Q 16.75 56 26.8125 56 
Q 31.78125 56 36.171875 55.265625 
Q 40.578125 54.546875 44.28125 53.078125 
z
" id="DejaVuSans-115"/>
    </defs>
    <g transform="translate(434.6668 21.0816)scale(0.1152 -0.1152)">
     <use xlink:href="#DejaVuSans-65"/>
     <use x="68.408203" xlink:href="#DejaVuSans-110"/>
     <use x="131.787109" xlink:href="#DejaVuSans-110"/>
     <use x="195.166016" xlink:href="#DejaVuSans-117"/>
     <use x="258.544922" xlink:href="#DejaVuSans-97"/>
     <use x="319.824219" xlink:href="#DejaVuSans-108"/>
     <use x="347.607422" xlink:href="#DejaVuSans-32"/>
     <use x="379.394531" xlink:href="#DejaVuSans-100"/>
     <use x="442.871094" xlink:href="#DejaVuSans-105"/>
     <use x="470.654297" xlink:href="#DejaVuSans-97"/>
     <use x="531.933594" xlink:href="#DejaVuSans-103"/>
     <use x="595.410156" xlink:href="#DejaVuSans-110"/>
     <use x="658.789062" xlink:href="#DejaVuSans-111"/>
     <use x="719.970703" xlink:href="#DejaVuSans-115"/>
     <use x="772.070312" xlink:href="#DejaVuSans-105"/>
     <use x="799.853516" xlink:href="#DejaVuSans-115"/>
     <use x="851.953125" xlink:href="#DejaVuSans-32"/>
     <use x="883.740234" xlink:href="#DejaVuSans-47"/>
     <use x="917.431641" xlink:href="#DejaVuSans-32"/>
     <use x="949.21875" xlink:href="#DejaVuSans-100"/>
     <use x="1012.695312" xlink:href="#DejaVuSans-105"/>
     <use x="1040.478516" xlink:href="#DejaVuSans-97"/>
     <use x="1101.757812" xlink:href="#DejaVuSans-103"/>
     <use x="1165.234375" xlink:href="#DejaVuSans-110"/>
     <use x="1228.613281" xlink:href="#DejaVuSans-111"/>
     <use x="1289.794922" xlink:href="#DejaVuSans-115"/>
     <use x="1341.894531" xlink:href="#DejaVuSans-101"/>
     <use x="1403.417969" xlink:href="#DejaVuSans-100"/>
     <use x="1466.894531" xlink:href="#DejaVuSans-32"/>
     <use x="1498.681641" xlink:href="#DejaVuSans-112"/>
     <use x="1562.158203" xlink:href="#DejaVuSans-114"/>
     <use x="1601.021484" xlink:href="#DejaVuSans-101"/>
     <use x="1662.544922" xlink:href="#DejaVuSans-118"/>
     <use x="1721.724609" xlink:href="#DejaVuSans-97"/>
     <use x="1783.003906" xlink:href="#DejaVuSans-108"/>
     <use x="1810.787109" xlink:href="#DejaVuSans-101"/>
     <use x="1872.310547" xlink:href="#DejaVuSans-110"/>
     <use x="1935.689453" xlink:href="#DejaVuSans-99"/>
     <use x="1990.669922" xlink:href="#DejaVuSans-101"/>
    </g>
   </g>
  </g>
 </g>
 <defs>
  <clipPath id="p8569bc4f05">
   <rect height="285.1768" width="309.3676" x="44.4116" y="27.0816"/>
  </clipPath>
  <clipPath id="p93c89f216f">
   <rect height="285.1768" width="309.3676" x="398.1908" y="27.0816"/>
  </clipPath>
 </defs>
</svg>
